<svg width="207" height="208" viewBox="0 0 207 208" fill="none" xmlns="http://www.w3.org/2000/svg">
<path d="M47.8687 152.75C56.925 146.972 65.8734 142.603 74.7141 139.642C83.5547 136.681 93.15 135.2 103.5 135.2C113.85 135.2 123.481 136.681 132.394 139.642C141.306 142.603 150.291 146.972 159.347 152.75C165.672 144.95 170.164 137.078 172.823 129.133C175.483 121.189 176.812 112.811 176.812 104C176.812 83.0556 169.805 65.5417 155.789 51.4584C141.773 37.375 124.344 30.3334 103.5 30.3334C82.6562 30.3334 65.2266 37.375 51.2109 51.4584C37.1953 65.5417 30.1875 83.0556 30.1875 104C30.1875 112.811 31.5531 121.189 34.2844 129.133C37.0156 137.078 41.5437 144.95 47.8687 152.75ZM103.46 110.5C95.1491 110.5 88.1547 107.634 82.4766 101.901C76.7984 96.169 73.9594 89.1273 73.9594 80.7764C73.9594 72.4255 76.8118 65.3973 82.5167 59.6917C88.2215 53.9862 95.2293 51.1334 103.54 51.1334C111.851 51.1334 118.845 53.9996 124.523 59.732C130.202 65.4644 133.041 72.5061 133.041 80.857C133.041 89.2079 130.188 96.2362 124.483 101.942C118.778 107.647 111.771 110.5 103.46 110.5ZM103.413 190.667C91.4604 190.667 80.2282 188.392 69.7159 183.842C59.2036 179.292 50.0593 173.081 42.283 165.208C34.5068 157.336 28.3906 148.139 23.9344 137.618C19.4781 127.096 17.25 115.854 17.25 103.892C17.25 91.929 19.5141 80.6869 24.0422 70.1656C28.5703 59.6441 34.7516 50.4834 42.5859 42.6834C50.4203 34.8834 59.5729 28.7084 70.0438 24.1584C80.5146 19.6084 91.7026 17.3334 103.608 17.3334C115.513 17.3334 126.701 19.6084 137.172 24.1584C147.643 28.7084 156.759 34.8834 164.522 42.6834C172.284 50.4834 178.43 59.6556 182.958 70.2C187.486 80.7445 189.75 91.9919 189.75 103.942C189.75 115.893 187.486 127.123 182.958 137.634C178.43 148.145 172.284 157.336 164.522 165.208C156.759 173.081 147.622 179.292 137.11 183.842C126.597 188.392 115.365 190.667 103.413 190.667Z" fill="#7DD2FD"/>
</svg>
