<svg width="224" height="233" viewBox="0 0 224 233" fill="none" xmlns="http://www.w3.org/2000/svg">
<path d="M70 163.585C71.8667 163.585 73.5 162.857 74.9 161.401C76.3 159.945 77 158.246 77 156.304C77 154.363 76.3 152.664 74.9 151.207C73.5 149.751 71.8667 149.023 70 149.023C68.1333 149.023 66.5 149.751 65.1 151.207C63.7 152.664 63 154.363 63 156.304C63 158.246 63.7 159.945 65.1 161.401C66.5 162.857 68.1333 163.585 70 163.585ZM70 123.781C71.8667 123.781 73.5 123.053 74.9 121.597C76.3 120.141 77 118.442 77 116.5C77 114.558 76.3 112.859 74.9 111.403C73.5 109.947 71.8667 109.219 70 109.219C68.1333 109.219 66.5 109.947 65.1 111.403C63.7 112.859 63 114.558 63 116.5C63 118.442 63.7 120.141 65.1 121.597C66.5 123.053 68.1333 123.781 70 123.781ZM70 83.9771C71.8667 83.9771 73.5 83.249 74.9 81.7927C76.3 80.3365 77 78.6375 77 76.6958C77 74.7542 76.3 73.0552 74.9 71.599C73.5 70.1427 71.8667 69.4146 70 69.4146C68.1333 69.4146 66.5 70.1427 65.1 71.599C63.7 73.0552 63 74.7542 63 76.6958C63 78.6375 63.7 80.3365 65.1 81.7927C66.5 83.249 68.1333 83.9771 70 83.9771ZM100.8 163.585H157.733V149.023H100.8V163.585ZM100.8 123.781H157.733V109.219H100.8V123.781ZM100.8 83.9771H157.733V69.4146H100.8V83.9771ZM42 203.875C38.2667 203.875 35 202.419 32.2 199.506C29.4 196.594 28 193.196 28 189.312V43.6875C28 39.8042 29.4 36.4063 32.2 33.4938C35 30.5812 38.2667 29.125 42 29.125H182C185.733 29.125 189 30.5812 191.8 33.4938C194.6 36.4063 196 39.8042 196 43.6875V189.312C196 193.196 194.6 196.594 191.8 199.506C189 202.419 185.733 203.875 182 203.875H42ZM42 189.312H182V43.6875H42V189.312Z" fill="#5AA9FF"/>
</svg>
