<svg width="88" height="85" viewBox="0 0 88 85" fill="none" xmlns="http://www.w3.org/2000/svg">
<path d="M43.9866 70.8332C42.773 70.8332 41.7385 70.4158 40.8829 69.581C40.0274 68.7463 39.5996 67.7428 39.5996 66.5706C39.5996 65.3984 40.0317 64.3991 40.896 63.5728C41.7601 62.7464 42.799 62.3332 44.0126 62.3332C45.2262 62.3332 46.2607 62.7506 47.1163 63.5853C47.9718 64.42 48.3996 65.4235 48.3996 66.5957C48.3996 67.7679 47.9675 68.7672 47.1033 69.5936C46.2391 70.42 45.2002 70.8332 43.9866 70.8332ZM43.9866 46.7498C42.773 46.7498 41.7385 46.3325 40.8829 45.4977C40.0274 44.663 39.5996 43.6595 39.5996 42.4873C39.5996 41.3151 40.0317 40.3158 40.896 39.4894C41.7601 38.663 42.799 38.2498 44.0126 38.2498C45.2262 38.2498 46.2607 38.6672 47.1163 39.502C47.9718 40.3367 48.3996 41.3402 48.3996 42.5124C48.3996 43.6846 47.9675 44.6839 47.1033 45.5103C46.2391 46.3366 45.2002 46.7498 43.9866 46.7498ZM43.9866 22.6665C42.773 22.6665 41.7385 22.2491 40.8829 21.4143C40.0274 20.5796 39.5996 19.5762 39.5996 18.4039C39.5996 17.2318 40.0317 16.2325 40.896 15.4061C41.7601 14.5797 42.799 14.1665 44.0126 14.1665C45.2262 14.1665 46.2607 14.5839 47.1163 15.4187C47.9718 16.2534 48.3996 17.2568 48.3996 18.4291C48.3996 19.6013 47.9675 20.6005 47.1033 21.4269C46.2391 22.2533 45.2002 22.6665 43.9866 22.6665Z" fill="#002940"/>
</svg>
