<svg width="1048" height="1184" viewBox="0 0 1048 1184" fill="none" xmlns="http://www.w3.org/2000/svg">
<g filter="url(#filter0_d_483_3)">
<rect x="4" width="1040" height="1174" rx="51.3563" fill="white"/>
</g>
<path d="M392.772 116.462C389.561 116.462 386.658 115.912 384.063 114.812C381.512 113.713 379.489 112.129 377.993 110.062C376.497 107.994 375.728 105.553 375.684 102.738H385.581C385.713 104.63 386.372 106.125 387.56 107.225C388.792 108.324 390.463 108.874 392.574 108.874C394.73 108.874 396.423 108.368 397.655 107.357C398.887 106.301 399.502 104.937 399.502 103.266C399.502 101.902 399.084 100.781 398.249 99.901C397.413 99.0213 396.357 98.3395 395.082 97.8556C393.85 97.3278 392.135 96.756 389.935 96.1402C386.944 95.2604 384.503 94.4027 382.612 93.567C380.764 92.6872 379.159 91.3896 377.795 89.6742C376.475 87.9147 375.816 85.5834 375.816 82.6803C375.816 79.9532 376.497 77.5779 377.861 75.5545C379.225 73.5312 381.138 71.9916 383.601 70.936C386.064 69.8363 388.88 69.2865 392.047 69.2865C396.797 69.2865 400.646 70.4521 403.593 72.7834C406.584 75.0707 408.234 78.2817 408.542 82.4164H398.381C398.293 80.8329 397.611 79.5353 396.335 78.5236C395.104 77.4679 393.454 76.9401 391.387 76.9401C389.583 76.9401 388.132 77.402 387.032 78.3257C385.977 79.2494 385.449 80.591 385.449 82.3504C385.449 83.5821 385.845 84.6157 386.636 85.4515C387.472 86.2432 388.484 86.903 389.671 87.4309C390.903 87.9147 392.618 88.4865 394.818 89.1463C397.809 90.0261 400.25 90.9058 402.141 91.7855C404.033 92.6652 405.66 93.9848 407.024 95.7443C408.388 97.5037 409.069 99.813 409.069 102.672C409.069 105.135 408.432 107.423 407.156 109.534C405.88 111.645 404.011 113.339 401.548 114.614C399.084 115.846 396.159 116.462 392.772 116.462ZM450.661 84.1979C450.661 86.6611 450.067 88.9704 448.88 91.1257C447.736 93.281 445.911 95.0185 443.403 96.3381C440.94 97.6577 437.817 98.3175 434.034 98.3175H426.315V116H417.078V69.9463H434.034C437.597 69.9463 440.632 70.5621 443.14 71.7937C445.647 73.0253 447.516 74.7188 448.748 76.8741C450.023 79.0295 450.661 81.4707 450.661 84.1979ZM433.638 90.8618C436.19 90.8618 438.081 90.29 439.313 89.1463C440.544 87.9587 441.16 86.3092 441.16 84.1979C441.16 79.7113 438.653 77.4679 433.638 77.4679H426.315V90.8618H433.638ZM466.457 108.676H481.632V116H457.219V69.9463H466.457V108.676ZM496.74 69.9463V116H487.503V69.9463H496.74ZM537.207 69.9463V77.402H524.935V116H515.697V77.402H503.425V69.9463H537.207ZM585.796 92.3793C588.391 92.8632 590.525 94.1608 592.196 96.2721C593.868 98.3835 594.703 100.803 594.703 103.53C594.703 105.993 594.087 108.17 592.856 110.062C591.668 111.909 589.931 113.361 587.643 114.416C585.356 115.472 582.651 116 579.528 116H559.668V69.9463H578.67C581.793 69.9463 584.476 70.4521 586.72 71.4638C589.007 72.4755 590.723 73.8831 591.866 75.6865C593.054 77.4899 593.648 79.5353 593.648 81.8226C593.648 84.5058 592.922 86.7491 591.47 88.5525C590.063 90.356 588.171 91.6316 585.796 92.3793ZM568.905 88.9484H577.351C579.55 88.9484 581.243 88.4645 582.431 87.4968C583.619 86.4852 584.213 85.0556 584.213 83.2082C584.213 81.3607 583.619 79.9312 582.431 78.9195C581.243 77.9078 579.55 77.402 577.351 77.402H568.905V88.9484ZM578.208 108.478C580.452 108.478 582.189 107.95 583.421 106.895C584.696 105.839 585.334 104.344 585.334 102.408C585.334 100.429 584.674 98.8893 583.355 97.7896C582.035 96.646 580.254 96.0742 578.01 96.0742H568.905V108.478H578.208ZM611.302 69.9463V116H602.065V69.9463H611.302ZM629.666 108.676H644.841V116H620.429V69.9463H629.666V108.676ZM659.949 108.676H675.125V116H650.712V69.9463H659.949V108.676Z" fill="#002940"/>
<rect x="4" y="177" width="1039" height="448" fill="#EFEFEF"/>
<rect x="15" y="803" width="1028" height="145" rx="10" fill="#EFEFEF"/>
<g filter="url(#filter1_d_483_3)">
<rect x="546" y="666" width="406" height="85.5527" rx="42.7763" fill="#75DAEB"/>
</g>
<path d="M673.939 883.315C672.469 883.315 671.15 883.07 669.984 882.58C668.817 882.067 667.895 881.367 667.219 880.48C666.542 879.57 666.169 878.532 666.099 877.365H669.389C669.482 878.322 669.925 879.103 670.719 879.71C671.535 880.317 672.597 880.62 673.904 880.62C675.117 880.62 676.074 880.352 676.774 879.815C677.474 879.278 677.824 878.602 677.824 877.785C677.824 876.945 677.45 876.327 676.704 875.93C675.957 875.51 674.802 875.102 673.239 874.705C671.815 874.332 670.649 873.958 669.739 873.585C668.852 873.188 668.082 872.617 667.429 871.87C666.799 871.1 666.484 870.097 666.484 868.86C666.484 867.88 666.775 866.982 667.359 866.165C667.942 865.348 668.77 864.707 669.844 864.24C670.917 863.75 672.142 863.505 673.519 863.505C675.642 863.505 677.357 864.042 678.664 865.115C679.97 866.188 680.67 867.658 680.764 869.525H677.579C677.509 868.522 677.1 867.717 676.354 867.11C675.63 866.503 674.65 866.2 673.414 866.2C672.27 866.2 671.36 866.445 670.684 866.935C670.007 867.425 669.669 868.067 669.669 868.86C669.669 869.49 669.867 870.015 670.264 870.435C670.684 870.832 671.197 871.158 671.804 871.415C672.434 871.648 673.297 871.917 674.394 872.22C675.77 872.593 676.89 872.967 677.754 873.34C678.617 873.69 679.352 874.227 679.959 874.95C680.589 875.673 680.915 876.618 680.939 877.785C680.939 878.835 680.647 879.78 680.064 880.62C679.48 881.46 678.652 882.125 677.579 882.615C676.529 883.082 675.315 883.315 673.939 883.315ZM702.935 872.675C702.935 873.282 702.9 873.923 702.83 874.6H687.5C687.616 876.49 688.258 877.972 689.425 879.045C690.615 880.095 692.05 880.62 693.73 880.62C695.106 880.62 696.25 880.305 697.16 879.675C698.093 879.022 698.746 878.158 699.12 877.085H702.55C702.036 878.928 701.01 880.433 699.47 881.6C697.93 882.743 696.016 883.315 693.73 883.315C691.91 883.315 690.276 882.907 688.83 882.09C687.406 881.273 686.286 880.118 685.47 878.625C684.653 877.108 684.245 875.358 684.245 873.375C684.245 871.392 684.641 869.653 685.435 868.16C686.228 866.667 687.336 865.523 688.76 864.73C690.206 863.913 691.863 863.505 693.73 863.505C695.55 863.505 697.16 863.902 698.56 864.695C699.96 865.488 701.033 866.585 701.78 867.985C702.55 869.362 702.935 870.925 702.935 872.675ZM699.645 872.01C699.645 870.797 699.376 869.758 698.84 868.895C698.303 868.008 697.568 867.343 696.635 866.9C695.725 866.433 694.71 866.2 693.59 866.2C691.98 866.2 690.603 866.713 689.46 867.74C688.34 868.767 687.698 870.19 687.535 872.01H699.645ZM710.324 857.1V883H707.139V857.1H710.324ZM733.252 872.675C733.252 873.282 733.217 873.923 733.147 874.6H717.817C717.934 876.49 718.575 877.972 719.742 879.045C720.932 880.095 722.367 880.62 724.047 880.62C725.424 880.62 726.567 880.305 727.477 879.675C728.41 879.022 729.064 878.158 729.437 877.085H732.867C732.354 878.928 731.327 880.433 729.787 881.6C728.247 882.743 726.334 883.315 724.047 883.315C722.227 883.315 720.594 882.907 719.147 882.09C717.724 881.273 716.604 880.118 715.787 878.625C714.97 877.108 714.562 875.358 714.562 873.375C714.562 871.392 714.959 869.653 715.752 868.16C716.545 866.667 717.654 865.523 719.077 864.73C720.524 863.913 722.18 863.505 724.047 863.505C725.867 863.505 727.477 863.902 728.877 864.695C730.277 865.488 731.35 866.585 732.097 867.985C732.867 869.362 733.252 870.925 733.252 872.675ZM729.962 872.01C729.962 870.797 729.694 869.758 729.157 868.895C728.62 868.008 727.885 867.343 726.952 866.9C726.042 866.433 725.027 866.2 723.907 866.2C722.297 866.2 720.92 866.713 719.777 867.74C718.657 868.767 718.015 870.19 717.852 872.01H729.962ZM736.266 873.375C736.266 871.392 736.663 869.665 737.456 868.195C738.25 866.702 739.346 865.547 740.746 864.73C742.17 863.913 743.791 863.505 745.611 863.505C747.968 863.505 749.905 864.077 751.421 865.22C752.961 866.363 753.976 867.95 754.466 869.98H751.036C750.71 868.813 750.068 867.892 749.111 867.215C748.178 866.538 747.011 866.2 745.611 866.2C743.791 866.2 742.321 866.83 741.201 868.09C740.081 869.327 739.521 871.088 739.521 873.375C739.521 875.685 740.081 877.47 741.201 878.73C742.321 879.99 743.791 880.62 745.611 880.62C747.011 880.62 748.178 880.293 749.111 879.64C750.045 878.987 750.686 878.053 751.036 876.84H754.466C753.953 878.8 752.926 880.375 751.386 881.565C749.846 882.732 747.921 883.315 745.611 883.315C743.791 883.315 742.17 882.907 740.746 882.09C739.346 881.273 738.25 880.118 737.456 878.625C736.663 877.132 736.266 875.382 736.266 873.375ZM762.601 866.445V877.75C762.601 878.683 762.799 879.348 763.196 879.745C763.593 880.118 764.281 880.305 765.261 880.305H767.606V883H764.736C762.963 883 761.633 882.592 760.746 881.775C759.859 880.958 759.416 879.617 759.416 877.75V866.445H756.931V863.82H759.416V858.99H762.601V863.82H767.606V866.445H762.601ZM779.606 873.375C779.606 871.392 780.003 869.665 780.796 868.195C781.589 866.702 782.686 865.547 784.086 864.73C785.509 863.913 787.131 863.505 788.951 863.505C791.308 863.505 793.244 864.077 794.761 865.22C796.301 866.363 797.316 867.95 797.806 869.98H794.376C794.049 868.813 793.408 867.892 792.451 867.215C791.518 866.538 790.351 866.2 788.951 866.2C787.131 866.2 785.661 866.83 784.541 868.09C783.421 869.327 782.861 871.088 782.861 873.375C782.861 875.685 783.421 877.47 784.541 878.73C785.661 879.99 787.131 880.62 788.951 880.62C790.351 880.62 791.518 880.293 792.451 879.64C793.384 878.987 794.026 878.053 794.376 876.84H797.806C797.293 878.8 796.266 880.375 794.726 881.565C793.186 882.732 791.261 883.315 788.951 883.315C787.131 883.315 785.509 882.907 784.086 882.09C782.686 881.273 781.589 880.118 780.796 878.625C780.003 877.132 779.606 875.382 779.606 873.375ZM810.421 883.315C808.624 883.315 806.991 882.907 805.521 882.09C804.074 881.273 802.931 880.118 802.091 878.625C801.274 877.108 800.866 875.358 800.866 873.375C800.866 871.415 801.286 869.688 802.126 868.195C802.989 866.678 804.156 865.523 805.626 864.73C807.096 863.913 808.741 863.505 810.561 863.505C812.381 863.505 814.026 863.913 815.496 864.73C816.966 865.523 818.121 866.667 818.961 868.16C819.824 869.653 820.256 871.392 820.256 873.375C820.256 875.358 819.813 877.108 818.926 878.625C818.063 880.118 816.884 881.273 815.391 882.09C813.898 882.907 812.241 883.315 810.421 883.315ZM810.421 880.515C811.564 880.515 812.638 880.247 813.641 879.71C814.644 879.173 815.449 878.368 816.056 877.295C816.686 876.222 817.001 874.915 817.001 873.375C817.001 871.835 816.698 870.528 816.091 869.455C815.484 868.382 814.691 867.588 813.711 867.075C812.731 866.538 811.669 866.27 810.526 866.27C809.359 866.27 808.286 866.538 807.306 867.075C806.349 867.588 805.579 868.382 804.996 869.455C804.413 870.528 804.121 871.835 804.121 873.375C804.121 874.938 804.401 876.257 804.961 877.33C805.544 878.403 806.314 879.208 807.271 879.745C808.228 880.258 809.278 880.515 810.421 880.515ZM833.789 863.47C836.122 863.47 838.012 864.182 839.459 865.605C840.905 867.005 841.629 869.035 841.629 871.695V883H838.479V872.15C838.479 870.237 838 868.778 837.044 867.775C836.087 866.748 834.78 866.235 833.124 866.235C831.444 866.235 830.102 866.76 829.099 867.81C828.119 868.86 827.629 870.388 827.629 872.395V883H824.444V863.82H827.629V866.55C828.259 865.57 829.11 864.812 830.184 864.275C831.28 863.738 832.482 863.47 833.789 863.47ZM850.716 866.445V877.75C850.716 878.683 850.915 879.348 851.311 879.745C851.708 880.118 852.396 880.305 853.376 880.305H855.721V883H852.851C851.078 883 849.748 882.592 848.861 881.775C847.975 880.958 847.531 879.617 847.531 877.75V866.445H845.046V863.82H847.531V858.99H850.716V863.82H855.721V866.445H850.716ZM858.39 873.34C858.39 871.38 858.787 869.665 859.58 868.195C860.374 866.702 861.459 865.547 862.835 864.73C864.235 863.913 865.787 863.505 867.49 863.505C869.17 863.505 870.629 863.867 871.865 864.59C873.102 865.313 874.024 866.223 874.63 867.32V863.82H877.85V883H874.63V879.43C874 880.55 873.055 881.483 871.795 882.23C870.559 882.953 869.112 883.315 867.455 883.315C865.752 883.315 864.212 882.895 862.835 882.055C861.459 881.215 860.374 880.037 859.58 878.52C858.787 877.003 858.39 875.277 858.39 873.34ZM874.63 873.375C874.63 871.928 874.339 870.668 873.755 869.595C873.172 868.522 872.379 867.705 871.375 867.145C870.395 866.562 869.31 866.27 868.12 866.27C866.93 866.27 865.845 866.55 864.865 867.11C863.885 867.67 863.104 868.487 862.52 869.56C861.937 870.633 861.645 871.893 861.645 873.34C861.645 874.81 861.937 876.093 862.52 877.19C863.104 878.263 863.885 879.092 864.865 879.675C865.845 880.235 866.93 880.515 868.12 880.515C869.31 880.515 870.395 880.235 871.375 879.675C872.379 879.092 873.172 878.263 873.755 877.19C874.339 876.093 874.63 874.822 874.63 873.375ZM882.043 873.375C882.043 871.392 882.439 869.665 883.233 868.195C884.026 866.702 885.123 865.547 886.523 864.73C887.946 863.913 889.568 863.505 891.388 863.505C893.744 863.505 895.681 864.077 897.198 865.22C898.738 866.363 899.753 867.95 900.243 869.98H896.813C896.486 868.813 895.844 867.892 894.888 867.215C893.954 866.538 892.788 866.2 891.388 866.2C889.568 866.2 888.098 866.83 886.978 868.09C885.858 869.327 885.298 871.088 885.298 873.375C885.298 875.685 885.858 877.47 886.978 878.73C888.098 879.99 889.568 880.62 891.388 880.62C892.788 880.62 893.954 880.293 894.888 879.64C895.821 878.987 896.463 878.053 896.813 876.84H900.243C899.729 878.8 898.703 880.375 897.163 881.565C895.623 882.732 893.698 883.315 891.388 883.315C889.568 883.315 887.946 882.907 886.523 882.09C885.123 881.273 884.026 880.118 883.233 878.625C882.439 877.132 882.043 875.382 882.043 873.375ZM908.377 866.445V877.75C908.377 878.683 908.576 879.348 908.972 879.745C909.369 880.118 910.057 880.305 911.037 880.305H913.382V883H910.512C908.739 883 907.409 882.592 906.522 881.775C905.636 880.958 905.192 879.617 905.192 877.75V866.445H902.707V863.82H905.192V858.99H908.377V863.82H913.382V866.445H908.377Z" fill="#002940"/>
<path d="M610 877.75L598 865.75L600.15 863.6L610 873.5L619.85 863.65L622 865.8L610 877.75Z" fill="black"/>
<g filter="url(#filter2_d_483_3)">
<path d="M297 1060.5C297 1034.27 318.266 1013 344.5 1013H747.5C773.734 1013 795 1034.27 795 1060.5C795 1086.73 773.734 1108 747.5 1108H344.5C318.266 1108 297 1086.73 297 1060.5Z" fill="url(#paint0_linear_483_3)"/>
</g>
<path d="M141.904 891.303C139.797 891.303 137.892 890.942 136.189 890.221C134.514 889.499 133.187 888.46 132.205 887.103C131.224 885.746 130.718 884.144 130.69 882.297H137.184C137.271 883.538 137.704 884.52 138.483 885.241C139.292 885.963 140.389 886.324 141.774 886.324C143.189 886.324 144.3 885.992 145.108 885.328C145.916 884.635 146.321 883.74 146.321 882.643C146.321 881.748 146.046 881.012 145.498 880.435C144.949 879.858 144.257 879.41 143.42 879.093C142.611 878.746 141.486 878.371 140.042 877.967C138.079 877.39 136.477 876.827 135.236 876.278C134.024 875.701 132.97 874.849 132.075 873.724C131.209 872.569 130.776 871.039 130.776 869.134C130.776 867.344 131.224 865.786 132.118 864.458C133.013 863.13 134.269 862.12 135.885 861.427C137.502 860.705 139.349 860.344 141.428 860.344C144.545 860.344 147.071 861.109 149.005 862.639C150.968 864.14 152.05 866.247 152.253 868.961H145.584C145.527 867.922 145.079 867.07 144.242 866.406C143.434 865.713 142.351 865.367 140.995 865.367C139.811 865.367 138.859 865.67 138.137 866.276C137.444 866.882 137.098 867.763 137.098 868.917C137.098 869.726 137.358 870.404 137.877 870.953C138.426 871.472 139.09 871.905 139.869 872.252C140.677 872.569 141.803 872.944 143.246 873.377C145.209 873.955 146.811 874.532 148.053 875.109C149.294 875.687 150.362 876.553 151.257 877.707C152.152 878.862 152.599 880.377 152.599 882.254C152.599 883.87 152.18 885.371 151.343 886.757C150.506 888.142 149.279 889.254 147.663 890.091C146.046 890.899 144.127 891.303 141.904 891.303ZM180.153 878.487C180.153 879.353 180.096 880.132 179.98 880.825H162.444C162.588 882.557 163.195 883.913 164.263 884.895C165.331 885.876 166.644 886.367 168.203 886.367C170.454 886.367 172.056 885.4 173.009 883.466H179.547C178.854 885.775 177.527 887.68 175.564 889.181C173.601 890.654 171.19 891.39 168.333 891.39C166.023 891.39 163.945 890.885 162.098 889.874C160.279 888.835 158.85 887.377 157.811 885.501C156.801 883.625 156.296 881.46 156.296 879.006C156.296 876.524 156.801 874.344 157.811 872.468C158.821 870.592 160.236 869.148 162.054 868.138C163.873 867.128 165.966 866.623 168.333 866.623C170.613 866.623 172.648 867.113 174.438 868.095C176.256 869.076 177.656 870.476 178.638 872.295C179.648 874.084 180.153 876.148 180.153 878.487ZM173.875 876.755C173.846 875.196 173.283 873.955 172.186 873.031C171.089 872.078 169.747 871.602 168.16 871.602C166.659 871.602 165.388 872.064 164.349 872.988C163.339 873.882 162.718 875.138 162.487 876.755H173.875ZM197.871 866.666C200.729 866.666 203.038 867.575 204.799 869.394C206.56 871.183 207.44 873.695 207.44 876.928V891H201.378V877.75C201.378 875.845 200.902 874.388 199.949 873.377C198.997 872.338 197.698 871.819 196.052 871.819C194.378 871.819 193.05 872.338 192.069 873.377C191.116 874.388 190.64 875.845 190.64 877.75V891H184.578V867.012H190.64V870C191.448 868.961 192.473 868.153 193.714 867.575C194.984 866.969 196.37 866.666 197.871 866.666ZM211.646 878.92C211.646 876.495 212.122 874.344 213.075 872.468C214.056 870.592 215.384 869.148 217.058 868.138C218.732 867.128 220.594 866.623 222.644 866.623C224.202 866.623 225.689 866.969 227.103 867.662C228.518 868.326 229.644 869.221 230.481 870.346V858.959H236.629V891H230.481V887.449C229.73 888.633 228.677 889.586 227.32 890.307C225.963 891.029 224.39 891.39 222.6 891.39C220.58 891.39 218.732 890.87 217.058 889.831C215.384 888.792 214.056 887.334 213.075 885.458C212.122 883.553 211.646 881.373 211.646 878.92ZM230.524 879.006C230.524 877.534 230.235 876.278 229.658 875.239C229.081 874.171 228.301 873.363 227.32 872.814C226.339 872.237 225.285 871.948 224.159 871.948C223.033 871.948 221.994 872.223 221.042 872.771C220.089 873.32 219.31 874.128 218.703 875.196C218.126 876.235 217.837 877.476 217.837 878.92C217.837 880.363 218.126 881.633 218.703 882.73C219.31 883.798 220.089 884.621 221.042 885.198C222.023 885.775 223.062 886.064 224.159 886.064C225.285 886.064 226.339 885.79 227.32 885.241C228.301 884.664 229.081 883.856 229.658 882.816C230.235 881.748 230.524 880.478 230.524 879.006ZM282.657 866.666C285.601 866.666 287.968 867.575 289.758 869.394C291.576 871.183 292.486 873.695 292.486 876.928V891H286.424V877.75C286.424 875.874 285.948 874.445 284.995 873.464C284.042 872.454 282.743 871.948 281.098 871.948C279.453 871.948 278.139 872.454 277.158 873.464C276.205 874.445 275.729 875.874 275.729 877.75V891H269.667V877.75C269.667 875.874 269.191 874.445 268.238 873.464C267.286 872.454 265.987 871.948 264.341 871.948C262.667 871.948 261.339 872.454 260.358 873.464C259.405 874.445 258.929 875.874 258.929 877.75V891H252.867V867.012H258.929V869.913C259.708 868.903 260.704 868.109 261.917 867.532C263.158 866.955 264.515 866.666 265.987 866.666C267.863 866.666 269.537 867.07 271.009 867.878C272.482 868.658 273.622 869.783 274.43 871.256C275.209 869.87 276.335 868.759 277.807 867.922C279.308 867.084 280.925 866.666 282.657 866.666ZM308.89 891.39C306.58 891.39 304.502 890.885 302.655 889.874C300.807 888.835 299.349 887.377 298.281 885.501C297.242 883.625 296.723 881.46 296.723 879.006C296.723 876.553 297.257 874.388 298.325 872.511C299.422 870.635 300.908 869.192 302.784 868.181C304.661 867.142 306.754 866.623 309.063 866.623C311.372 866.623 313.465 867.142 315.341 868.181C317.218 869.192 318.69 870.635 319.758 872.511C320.855 874.388 321.403 876.553 321.403 879.006C321.403 881.46 320.84 883.625 319.714 885.501C318.618 887.377 317.116 888.835 315.211 889.874C313.335 890.885 311.228 891.39 308.89 891.39ZM308.89 886.107C309.987 886.107 311.011 885.847 311.964 885.328C312.945 884.779 313.725 883.971 314.302 882.903C314.879 881.835 315.168 880.536 315.168 879.006C315.168 876.726 314.562 874.979 313.349 873.767C312.166 872.526 310.708 871.905 308.976 871.905C307.244 871.905 305.787 872.526 304.603 873.767C303.448 874.979 302.871 876.726 302.871 879.006C302.871 881.287 303.434 883.047 304.56 884.289C305.714 885.501 307.158 886.107 308.89 886.107ZM339.143 866.666C342 866.666 344.31 867.575 346.07 869.394C347.831 871.183 348.712 873.695 348.712 876.928V891H342.65V877.75C342.65 875.845 342.173 874.388 341.221 873.377C340.268 872.338 338.969 871.819 337.324 871.819C335.65 871.819 334.322 872.338 333.34 873.377C332.388 874.388 331.912 875.845 331.912 877.75V891H325.85V867.012H331.912V870C332.72 868.961 333.745 868.153 334.986 867.575C336.256 866.969 337.641 866.666 339.143 866.666ZM376.775 878.487C376.775 879.353 376.717 880.132 376.602 880.825H359.066C359.21 882.557 359.816 883.913 360.884 884.895C361.952 885.876 363.266 886.367 364.825 886.367C367.076 886.367 368.678 885.4 369.631 883.466H376.169C375.476 885.775 374.148 887.68 372.185 889.181C370.223 890.654 367.812 891.39 364.955 891.39C362.645 891.39 360.567 890.885 358.719 889.874C356.901 888.835 355.472 887.377 354.433 885.501C353.423 883.625 352.917 881.46 352.917 879.006C352.917 876.524 353.423 874.344 354.433 872.468C355.443 870.592 356.858 869.148 358.676 868.138C360.495 867.128 362.587 866.623 364.955 866.623C367.235 866.623 369.27 867.113 371.06 868.095C372.878 869.076 374.278 870.476 375.26 872.295C376.27 874.084 376.775 876.148 376.775 878.487ZM370.497 876.755C370.468 875.196 369.905 873.955 368.808 873.031C367.711 872.078 366.369 871.602 364.781 871.602C363.28 871.602 362.01 872.064 360.971 872.988C359.961 873.882 359.34 875.138 359.109 876.755H370.497ZM404.148 867.012L389.297 902.344H382.845L388.041 890.394L378.429 867.012H385.227L391.418 883.769L397.697 867.012H404.148ZM424.791 871.992V883.596C424.791 884.404 424.979 884.996 425.354 885.371C425.758 885.718 426.422 885.891 427.346 885.891H430.16V891H426.35C421.241 891 418.686 888.518 418.686 883.553V871.992H415.828V867.012H418.686V861.08H424.791V867.012H430.16V871.992H424.791ZM445.172 891.39C442.863 891.39 440.784 890.885 438.937 889.874C437.089 888.835 435.632 887.377 434.564 885.501C433.524 883.625 433.005 881.46 433.005 879.006C433.005 876.553 433.539 874.388 434.607 872.511C435.704 870.635 437.19 869.192 439.067 868.181C440.943 867.142 443.036 866.623 445.345 866.623C447.654 866.623 449.747 867.142 451.623 868.181C453.5 869.192 454.972 870.635 456.04 872.511C457.137 874.388 457.685 876.553 457.685 879.006C457.685 881.46 457.122 883.625 455.997 885.501C454.9 887.377 453.399 888.835 451.493 889.874C449.617 890.885 447.51 891.39 445.172 891.39ZM445.172 886.107C446.269 886.107 447.293 885.847 448.246 885.328C449.227 884.779 450.007 883.971 450.584 882.903C451.162 881.835 451.45 880.536 451.45 879.006C451.45 876.726 450.844 874.979 449.632 873.767C448.448 872.526 446.99 871.905 445.258 871.905C443.526 871.905 442.069 872.526 440.885 873.767C439.731 874.979 439.153 876.726 439.153 879.006C439.153 881.287 439.716 883.047 440.842 884.289C441.997 885.501 443.44 886.107 445.172 886.107ZM464.816 891.303C463.719 891.303 462.81 890.971 462.089 890.307C461.396 889.614 461.049 888.763 461.049 887.753C461.049 886.742 461.396 885.905 462.089 885.241C462.81 884.548 463.719 884.202 464.816 884.202C465.884 884.202 466.765 884.548 467.458 885.241C468.15 885.905 468.497 886.742 468.497 887.753C468.497 888.763 468.15 889.614 467.458 890.307C466.765 890.971 465.884 891.303 464.816 891.303ZM464.816 873.377C463.719 873.377 462.81 873.045 462.089 872.381C461.396 871.689 461.049 870.837 461.049 869.827C461.049 868.816 461.396 867.979 462.089 867.315C462.81 866.623 463.719 866.276 464.816 866.276C465.884 866.276 466.765 866.623 467.458 867.315C468.15 867.979 468.497 868.816 468.497 869.827C468.497 870.837 468.15 871.689 467.458 872.381C466.765 873.045 465.884 873.377 464.816 873.377Z" fill="#002940"/>
<g filter="url(#filter3_d_483_3)">
<rect x="535" y="230" width="406" height="85.5527" rx="42.7763" fill="#75DAEB"/>
</g>
<path d="M659.115 279.575H648.475L646.515 285H643.155L651.975 260.745H655.65L664.435 285H661.075L659.115 279.575ZM658.205 276.985L653.795 264.665L649.385 276.985H658.205ZM678.289 285L673.739 277.86L669.364 285H666.039L672.234 275.48L666.039 265.82H669.644L674.194 272.925L678.534 265.82H681.859L675.699 275.305L681.894 285H678.289ZM702.527 274.675C702.527 275.282 702.492 275.923 702.422 276.6H687.092C687.209 278.49 687.85 279.972 689.017 281.045C690.207 282.095 691.642 282.62 693.322 282.62C694.699 282.62 695.842 282.305 696.752 281.675C697.685 281.022 698.339 280.158 698.712 279.085H702.142C701.629 280.928 700.602 282.433 699.062 283.6C697.522 284.743 695.609 285.315 693.322 285.315C691.502 285.315 689.869 284.907 688.422 284.09C686.999 283.273 685.879 282.118 685.062 280.625C684.245 279.108 683.837 277.358 683.837 275.375C683.837 273.392 684.234 271.653 685.027 270.16C685.82 268.667 686.929 267.523 688.352 266.73C689.799 265.913 691.455 265.505 693.322 265.505C695.142 265.505 696.752 265.902 698.152 266.695C699.552 267.488 700.625 268.585 701.372 269.985C702.142 271.362 702.527 272.925 702.527 274.675ZM699.237 274.01C699.237 272.797 698.969 271.758 698.432 270.895C697.895 270.008 697.16 269.343 696.227 268.9C695.317 268.433 694.302 268.2 693.182 268.2C691.572 268.2 690.195 268.713 689.052 269.74C687.932 270.767 687.29 272.19 687.127 274.01H699.237ZM709.916 259.1V285H706.731V259.1H709.916ZM740.985 267.745C740.985 269.775 740.285 271.467 738.885 272.82C737.509 274.15 735.397 274.815 732.55 274.815H727.86V285H724.675V260.605H732.55C735.304 260.605 737.392 261.27 738.815 262.6C740.262 263.93 740.985 265.645 740.985 267.745ZM732.55 272.19C734.324 272.19 735.63 271.805 736.47 271.035C737.31 270.265 737.73 269.168 737.73 267.745C737.73 264.735 736.004 263.23 732.55 263.23H727.86V272.19H732.55ZM743.754 275.34C743.754 273.38 744.151 271.665 744.944 270.195C745.737 268.702 746.822 267.547 748.199 266.73C749.599 265.913 751.151 265.505 752.854 265.505C754.534 265.505 755.992 265.867 757.229 266.59C758.466 267.313 759.387 268.223 759.994 269.32V265.82H763.214V285H759.994V281.43C759.364 282.55 758.419 283.483 757.159 284.23C755.922 284.953 754.476 285.315 752.819 285.315C751.116 285.315 749.576 284.895 748.199 284.055C746.822 283.215 745.737 282.037 744.944 280.52C744.151 279.003 743.754 277.277 743.754 275.34ZM759.994 275.375C759.994 273.928 759.702 272.668 759.119 271.595C758.536 270.522 757.742 269.705 756.739 269.145C755.759 268.562 754.674 268.27 753.484 268.27C752.294 268.27 751.209 268.55 750.229 269.11C749.249 269.67 748.467 270.487 747.884 271.56C747.301 272.633 747.009 273.893 747.009 275.34C747.009 276.81 747.301 278.093 747.884 279.19C748.467 280.263 749.249 281.092 750.229 281.675C751.209 282.235 752.294 282.515 753.484 282.515C754.674 282.515 755.759 282.235 756.739 281.675C757.742 281.092 758.536 280.263 759.119 279.19C759.702 278.093 759.994 276.822 759.994 275.375ZM767.406 275.34C767.406 273.38 767.803 271.665 768.596 270.195C769.39 268.702 770.475 267.547 771.851 266.73C773.251 265.913 774.815 265.505 776.541 265.505C778.035 265.505 779.423 265.855 780.706 266.555C781.99 267.232 782.97 268.13 783.646 269.25V259.1H786.866V285H783.646V281.395C783.016 282.538 782.083 283.483 780.846 284.23C779.61 284.953 778.163 285.315 776.506 285.315C774.803 285.315 773.251 284.895 771.851 284.055C770.475 283.215 769.39 282.037 768.596 280.52C767.803 279.003 767.406 277.277 767.406 275.34ZM783.646 275.375C783.646 273.928 783.355 272.668 782.771 271.595C782.188 270.522 781.395 269.705 780.391 269.145C779.411 268.562 778.326 268.27 777.136 268.27C775.946 268.27 774.861 268.55 773.881 269.11C772.901 269.67 772.12 270.487 771.536 271.56C770.953 272.633 770.661 273.893 770.661 275.34C770.661 276.81 770.953 278.093 771.536 279.19C772.12 280.263 772.901 281.092 773.881 281.675C774.861 282.235 775.946 282.515 777.136 282.515C778.326 282.515 779.411 282.235 780.391 281.675C781.395 281.092 782.188 280.263 782.771 279.19C783.355 278.093 783.646 276.822 783.646 275.375ZM793.894 262.705C793.287 262.705 792.774 262.495 792.354 262.075C791.934 261.655 791.724 261.142 791.724 260.535C791.724 259.928 791.934 259.415 792.354 258.995C792.774 258.575 793.287 258.365 793.894 258.365C794.477 258.365 794.967 258.575 795.364 258.995C795.784 259.415 795.994 259.928 795.994 260.535C795.994 261.142 795.784 261.655 795.364 262.075C794.967 262.495 794.477 262.705 793.894 262.705ZM795.434 265.82V285H792.249V265.82H795.434ZM804.047 259.1V285H800.862V259.1H804.047ZM812.66 259.1V285H809.475V259.1H812.66ZM816.899 275.34C816.899 273.38 817.295 271.665 818.089 270.195C818.882 268.702 819.967 267.547 821.344 266.73C822.744 265.913 824.295 265.505 825.999 265.505C827.679 265.505 829.137 265.867 830.374 266.59C831.61 267.313 832.532 268.223 833.139 269.32V265.82H836.359V285H833.139V281.43C832.509 282.55 831.564 283.483 830.304 284.23C829.067 284.953 827.62 285.315 825.964 285.315C824.26 285.315 822.72 284.895 821.344 284.055C819.967 283.215 818.882 282.037 818.089 280.52C817.295 279.003 816.899 277.277 816.899 275.34ZM833.139 275.375C833.139 273.928 832.847 272.668 832.264 271.595C831.68 270.522 830.887 269.705 829.884 269.145C828.904 268.562 827.819 268.27 826.629 268.27C825.439 268.27 824.354 268.55 823.374 269.11C822.394 269.67 821.612 270.487 821.029 271.56C820.445 272.633 820.154 273.893 820.154 275.34C820.154 276.81 820.445 278.093 821.029 279.19C821.612 280.263 822.394 281.092 823.374 281.675C824.354 282.235 825.439 282.515 826.629 282.515C827.819 282.515 828.904 282.235 829.884 281.675C830.887 281.092 831.68 280.263 832.264 279.19C832.847 278.093 833.139 276.822 833.139 275.375Z" fill="#002940"/>
<path d="M596 279.75L584 267.75L586.15 265.6L596 275.5L605.85 265.65L608 267.8L596 279.75Z" fill="black"/>
<g filter="url(#filter4_d_483_3)">
<rect x="535" y="330" width="406" height="85.5527" rx="42.7763" fill="#75DAEB"/>
</g>
<path d="M663.875 385H660.69L647.88 365.575V385H644.695V360.57H647.88L660.69 379.96V360.57H663.875V385ZM670.949 362.705C670.343 362.705 669.829 362.495 669.409 362.075C668.989 361.655 668.779 361.142 668.779 360.535C668.779 359.928 668.989 359.415 669.409 358.995C669.829 358.575 670.343 358.365 670.949 358.365C671.533 358.365 672.023 358.575 672.419 358.995C672.839 359.415 673.049 359.928 673.049 360.535C673.049 361.142 672.839 361.655 672.419 362.075C672.023 362.495 671.533 362.705 670.949 362.705ZM672.489 365.82V385H669.304V365.82H672.489ZM676.728 375.375C676.728 373.392 677.124 371.665 677.918 370.195C678.711 368.702 679.808 367.547 681.208 366.73C682.631 365.913 684.253 365.505 686.073 365.505C688.429 365.505 690.366 366.077 691.883 367.22C693.423 368.363 694.438 369.95 694.928 371.98H691.498C691.171 370.813 690.529 369.892 689.573 369.215C688.639 368.538 687.473 368.2 686.073 368.2C684.253 368.2 682.783 368.83 681.663 370.09C680.543 371.327 679.983 373.088 679.983 375.375C679.983 377.685 680.543 379.47 681.663 380.73C682.783 381.99 684.253 382.62 686.073 382.62C687.473 382.62 688.639 382.293 689.573 381.64C690.506 380.987 691.148 380.053 691.498 378.84H694.928C694.414 380.8 693.388 382.375 691.848 383.565C690.308 384.732 688.383 385.315 686.073 385.315C684.253 385.315 682.631 384.907 681.208 384.09C679.808 383.273 678.711 382.118 677.918 380.625C677.124 379.132 676.728 377.382 676.728 375.375ZM707.542 385.315C705.746 385.315 704.112 384.907 702.642 384.09C701.196 383.273 700.052 382.118 699.212 380.625C698.396 379.108 697.987 377.358 697.987 375.375C697.987 373.415 698.407 371.688 699.247 370.195C700.111 368.678 701.277 367.523 702.747 366.73C704.217 365.913 705.862 365.505 707.682 365.505C709.502 365.505 711.147 365.913 712.617 366.73C714.087 367.523 715.242 368.667 716.082 370.16C716.946 371.653 717.377 373.392 717.377 375.375C717.377 377.358 716.934 379.108 716.047 380.625C715.184 382.118 714.006 383.273 712.512 384.09C711.019 384.907 709.362 385.315 707.542 385.315ZM707.542 382.515C708.686 382.515 709.759 382.247 710.762 381.71C711.766 381.173 712.571 380.368 713.177 379.295C713.807 378.222 714.122 376.915 714.122 375.375C714.122 373.835 713.819 372.528 713.212 371.455C712.606 370.382 711.812 369.588 710.832 369.075C709.852 368.538 708.791 368.27 707.647 368.27C706.481 368.27 705.407 368.538 704.427 369.075C703.471 369.588 702.701 370.382 702.117 371.455C701.534 372.528 701.242 373.835 701.242 375.375C701.242 376.938 701.522 378.257 702.082 379.33C702.666 380.403 703.436 381.208 704.392 381.745C705.349 382.258 706.399 382.515 707.542 382.515ZM724.75 359.1V385H721.565V359.1H724.75ZM747.678 374.675C747.678 375.282 747.643 375.923 747.573 376.6H732.243C732.36 378.49 733.002 379.972 734.168 381.045C735.358 382.095 736.793 382.62 738.473 382.62C739.85 382.62 740.993 382.305 741.903 381.675C742.837 381.022 743.49 380.158 743.863 379.085H747.293C746.78 380.928 745.753 382.433 744.213 383.6C742.673 384.743 740.76 385.315 738.473 385.315C736.653 385.315 735.02 384.907 733.573 384.09C732.15 383.273 731.03 382.118 730.213 380.625C729.397 379.108 728.988 377.358 728.988 375.375C728.988 373.392 729.385 371.653 730.178 370.16C730.972 368.667 732.08 367.523 733.503 366.73C734.95 365.913 736.607 365.505 738.473 365.505C740.293 365.505 741.903 365.902 743.303 366.695C744.703 367.488 745.777 368.585 746.523 369.985C747.293 371.362 747.678 372.925 747.678 374.675ZM744.388 374.01C744.388 372.797 744.12 371.758 743.583 370.895C743.047 370.008 742.312 369.343 741.378 368.9C740.468 368.433 739.453 368.2 738.333 368.2C736.723 368.2 735.347 368.713 734.203 369.74C733.083 370.767 732.442 372.19 732.278 374.01H744.388ZM775.634 379.575H764.994L763.034 385H759.674L768.494 360.745H772.169L780.954 385H777.594L775.634 379.575ZM774.724 376.985L770.314 364.665L765.904 376.985H774.724ZM787.983 368.935C788.543 367.838 789.336 366.987 790.363 366.38C791.413 365.773 792.684 365.47 794.178 365.47V368.76H793.338C789.768 368.76 787.983 370.697 787.983 374.57V385H784.798V365.82H787.983V368.935ZM796.664 375.34C796.664 373.38 797.061 371.665 797.854 370.195C798.648 368.702 799.733 367.547 801.109 366.73C802.509 365.913 804.061 365.505 805.764 365.505C807.444 365.505 808.903 365.867 810.139 366.59C811.376 367.313 812.298 368.223 812.904 369.32V365.82H816.124V385H812.904V381.43C812.274 382.55 811.329 383.483 810.069 384.23C808.833 384.953 807.386 385.315 805.729 385.315C804.026 385.315 802.486 384.895 801.109 384.055C799.733 383.215 798.648 382.037 797.854 380.52C797.061 379.003 796.664 377.277 796.664 375.34ZM812.904 375.375C812.904 373.928 812.613 372.668 812.029 371.595C811.446 370.522 810.653 369.705 809.649 369.145C808.669 368.562 807.584 368.27 806.394 368.27C805.204 368.27 804.119 368.55 803.139 369.11C802.159 369.67 801.378 370.487 800.794 371.56C800.211 372.633 799.919 373.893 799.919 375.34C799.919 376.81 800.211 378.093 800.794 379.19C801.378 380.263 802.159 381.092 803.139 381.675C804.119 382.235 805.204 382.515 806.394 382.515C807.584 382.515 808.669 382.235 809.649 381.675C810.653 381.092 811.446 380.263 812.029 379.19C812.613 378.093 812.904 376.822 812.904 375.375ZM830.852 365.47C833.185 365.47 835.075 366.182 836.522 367.605C837.968 369.005 838.692 371.035 838.692 373.695V385H835.542V374.15C835.542 372.237 835.063 370.778 834.107 369.775C833.15 368.748 831.843 368.235 830.187 368.235C828.507 368.235 827.165 368.76 826.162 369.81C825.182 370.86 824.692 372.388 824.692 374.395V385H821.507V365.82H824.692V368.55C825.322 367.57 826.173 366.812 827.247 366.275C828.343 365.738 829.545 365.47 830.852 365.47ZM842.704 375.34C842.704 373.38 843.101 371.665 843.894 370.195C844.688 368.702 845.773 367.547 847.149 366.73C848.549 365.913 850.101 365.505 851.804 365.505C853.484 365.505 854.943 365.867 856.179 366.59C857.416 367.313 858.338 368.223 858.944 369.32V365.82H862.164V385H858.944V381.43C858.314 382.55 857.369 383.483 856.109 384.23C854.873 384.953 853.426 385.315 851.769 385.315C850.066 385.315 848.526 384.895 847.149 384.055C845.773 383.215 844.688 382.037 843.894 380.52C843.101 379.003 842.704 377.277 842.704 375.34ZM858.944 375.375C858.944 373.928 858.653 372.668 858.069 371.595C857.486 370.522 856.693 369.705 855.689 369.145C854.709 368.562 853.624 368.27 852.434 368.27C851.244 368.27 850.159 368.55 849.179 369.11C848.199 369.67 847.418 370.487 846.834 371.56C846.251 372.633 845.959 373.893 845.959 375.34C845.959 376.81 846.251 378.093 846.834 379.19C847.418 380.263 848.199 381.092 849.179 381.675C850.159 382.235 851.244 382.515 852.434 382.515C853.624 382.515 854.709 382.235 855.689 381.675C856.693 381.092 857.486 380.263 858.069 379.19C858.653 378.093 858.944 376.822 858.944 375.375Z" fill="#002940"/>
<path d="M596 379.75L584 367.75L586.15 365.6L596 375.5L605.85 365.65L608 367.8L596 379.75Z" fill="black"/>
<g filter="url(#filter5_d_483_3)">
<rect x="535" y="430" width="406" height="85.5527" rx="42.7763" fill="#75DAEB"/>
</g>
<path d="M663.175 467.675C662.498 466.252 661.518 465.155 660.235 464.385C658.952 463.592 657.458 463.195 655.755 463.195C654.052 463.195 652.512 463.592 651.135 464.385C649.782 465.155 648.708 466.275 647.915 467.745C647.145 469.192 646.76 470.872 646.76 472.785C646.76 474.698 647.145 476.378 647.915 477.825C648.708 479.272 649.782 480.392 651.135 481.185C652.512 481.955 654.052 482.34 655.755 482.34C658.135 482.34 660.095 481.628 661.635 480.205C663.175 478.782 664.073 476.857 664.33 474.43H654.6V471.84H667.725V474.29C667.538 476.297 666.908 478.14 665.835 479.82C664.762 481.477 663.35 482.795 661.6 483.775C659.85 484.732 657.902 485.21 655.755 485.21C653.492 485.21 651.427 484.685 649.56 483.635C647.693 482.562 646.212 481.08 645.115 479.19C644.042 477.3 643.505 475.165 643.505 472.785C643.505 470.405 644.042 468.27 645.115 466.38C646.212 464.467 647.693 462.985 649.56 461.935C651.427 460.862 653.492 460.325 655.755 460.325C658.345 460.325 660.632 460.967 662.615 462.25C664.622 463.533 666.08 465.342 666.99 467.675H663.175ZM670.746 475.34C670.746 473.38 671.143 471.665 671.936 470.195C672.73 468.702 673.815 467.547 675.191 466.73C676.591 465.913 678.143 465.505 679.846 465.505C681.526 465.505 682.985 465.867 684.221 466.59C685.458 467.313 686.38 468.223 686.986 469.32V465.82H690.206V485H686.986V481.43C686.356 482.55 685.411 483.483 684.151 484.23C682.915 484.953 681.468 485.315 679.811 485.315C678.108 485.315 676.568 484.895 675.191 484.055C673.815 483.215 672.73 482.037 671.936 480.52C671.143 479.003 670.746 477.277 670.746 475.34ZM686.986 475.375C686.986 473.928 686.695 472.668 686.111 471.595C685.528 470.522 684.735 469.705 683.731 469.145C682.751 468.562 681.666 468.27 680.476 468.27C679.286 468.27 678.201 468.55 677.221 469.11C676.241 469.67 675.46 470.487 674.876 471.56C674.293 472.633 674.001 473.893 674.001 475.34C674.001 476.81 674.293 478.093 674.876 479.19C675.46 480.263 676.241 481.092 677.221 481.675C678.201 482.235 679.286 482.515 680.476 482.515C681.666 482.515 682.751 482.235 683.731 481.675C684.735 481.092 685.528 480.263 686.111 479.19C686.695 478.093 686.986 476.822 686.986 475.375ZM713.089 474.675C713.089 475.282 713.054 475.923 712.984 476.6H697.654C697.77 478.49 698.412 479.972 699.579 481.045C700.769 482.095 702.204 482.62 703.884 482.62C705.26 482.62 706.404 482.305 707.314 481.675C708.247 481.022 708.9 480.158 709.274 479.085H712.704C712.19 480.928 711.164 482.433 709.624 483.6C708.084 484.743 706.17 485.315 703.884 485.315C702.064 485.315 700.43 484.907 698.984 484.09C697.56 483.273 696.44 482.118 695.624 480.625C694.807 479.108 694.399 477.358 694.399 475.375C694.399 473.392 694.795 471.653 695.589 470.16C696.382 468.667 697.49 467.523 698.914 466.73C700.36 465.913 702.017 465.505 703.884 465.505C705.704 465.505 707.314 465.902 708.714 466.695C710.114 467.488 711.187 468.585 711.934 469.985C712.704 471.362 713.089 472.925 713.089 474.675ZM709.799 474.01C709.799 472.797 709.53 471.758 708.994 470.895C708.457 470.008 707.722 469.343 706.789 468.9C705.879 468.433 704.864 468.2 703.744 468.2C702.134 468.2 700.757 468.713 699.614 469.74C698.494 470.767 697.852 472.19 697.689 474.01H709.799ZM720.478 459.1V485H717.293V459.1H720.478ZM755.397 460.605L746.192 485H742.517L733.312 460.605H736.707L744.372 481.64L752.037 460.605H755.397ZM776.389 474.675C776.389 475.282 776.354 475.923 776.284 476.6H760.954C761.071 478.49 761.713 479.972 762.879 481.045C764.069 482.095 765.504 482.62 767.184 482.62C768.561 482.62 769.704 482.305 770.614 481.675C771.548 481.022 772.201 480.158 772.574 479.085H776.004C775.491 480.928 774.464 482.433 772.924 483.6C771.384 484.743 769.471 485.315 767.184 485.315C765.364 485.315 763.731 484.907 762.284 484.09C760.861 483.273 759.741 482.118 758.924 480.625C758.108 479.108 757.699 477.358 757.699 475.375C757.699 473.392 758.096 471.653 758.889 470.16C759.683 468.667 760.791 467.523 762.214 466.73C763.661 465.913 765.318 465.505 767.184 465.505C769.004 465.505 770.614 465.902 772.014 466.695C773.414 467.488 774.488 468.585 775.234 469.985C776.004 471.362 776.389 472.925 776.389 474.675ZM773.099 474.01C773.099 472.797 772.831 471.758 772.294 470.895C771.758 470.008 771.023 469.343 770.089 468.9C769.179 468.433 768.164 468.2 767.044 468.2C765.434 468.2 764.058 468.713 762.914 469.74C761.794 470.767 761.153 472.19 760.989 474.01H773.099ZM789.938 465.47C792.272 465.47 794.162 466.182 795.608 467.605C797.055 469.005 797.778 471.035 797.778 473.695V485H794.628V474.15C794.628 472.237 794.15 470.778 793.193 469.775C792.237 468.748 790.93 468.235 789.273 468.235C787.593 468.235 786.252 468.76 785.248 469.81C784.268 470.86 783.778 472.388 783.778 474.395V485H780.593V465.82H783.778V468.55C784.408 467.57 785.26 466.812 786.333 466.275C787.43 465.738 788.632 465.47 789.938 465.47ZM820.481 474.675C820.481 475.282 820.446 475.923 820.376 476.6H805.046C805.163 478.49 805.804 479.972 806.971 481.045C808.161 482.095 809.596 482.62 811.276 482.62C812.653 482.62 813.796 482.305 814.706 481.675C815.639 481.022 816.293 480.158 816.666 479.085H820.096C819.583 480.928 818.556 482.433 817.016 483.6C815.476 484.743 813.563 485.315 811.276 485.315C809.456 485.315 807.823 484.907 806.376 484.09C804.953 483.273 803.833 482.118 803.016 480.625C802.199 479.108 801.791 477.358 801.791 475.375C801.791 473.392 802.188 471.653 802.981 470.16C803.774 468.667 804.883 467.523 806.306 466.73C807.753 465.913 809.409 465.505 811.276 465.505C813.096 465.505 814.706 465.902 816.106 466.695C817.506 467.488 818.579 468.585 819.326 469.985C820.096 471.362 820.481 472.925 820.481 474.675ZM817.191 474.01C817.191 472.797 816.923 471.758 816.386 470.895C815.849 470.008 815.114 469.343 814.181 468.9C813.271 468.433 812.256 468.2 811.136 468.2C809.526 468.2 808.149 468.713 807.006 469.74C805.886 470.767 805.244 472.19 805.081 474.01H817.191ZM832.595 465.505C834.252 465.505 835.699 465.867 836.935 466.59C838.195 467.313 839.129 468.223 839.735 469.32V465.82H842.955V485.42C842.955 487.17 842.582 488.722 841.835 490.075C841.089 491.452 840.015 492.525 838.615 493.295C837.239 494.065 835.629 494.45 833.785 494.45C831.265 494.45 829.165 493.855 827.485 492.665C825.805 491.475 824.814 489.853 824.51 487.8H827.66C828.01 488.967 828.734 489.9 829.83 490.6C830.927 491.323 832.245 491.685 833.785 491.685C835.535 491.685 836.959 491.137 838.055 490.04C839.175 488.943 839.735 487.403 839.735 485.42V481.395C839.105 482.515 838.172 483.448 836.935 484.195C835.699 484.942 834.252 485.315 832.595 485.315C830.892 485.315 829.34 484.895 827.94 484.055C826.564 483.215 825.479 482.037 824.685 480.52C823.892 479.003 823.495 477.277 823.495 475.34C823.495 473.38 823.892 471.665 824.685 470.195C825.479 468.702 826.564 467.547 827.94 466.73C829.34 465.913 830.892 465.505 832.595 465.505ZM839.735 475.375C839.735 473.928 839.444 472.668 838.86 471.595C838.277 470.522 837.484 469.705 836.48 469.145C835.5 468.562 834.415 468.27 833.225 468.27C832.035 468.27 830.95 468.55 829.97 469.11C828.99 469.67 828.209 470.487 827.625 471.56C827.042 472.633 826.75 473.893 826.75 475.34C826.75 476.81 827.042 478.093 827.625 479.19C828.209 480.263 828.99 481.092 829.97 481.675C830.95 482.235 832.035 482.515 833.225 482.515C834.415 482.515 835.5 482.235 836.48 481.675C837.484 481.092 838.277 480.263 838.86 479.19C839.444 478.093 839.735 476.822 839.735 475.375ZM847.148 475.34C847.148 473.38 847.544 471.665 848.338 470.195C849.131 468.702 850.216 467.547 851.593 466.73C852.993 465.913 854.544 465.505 856.248 465.505C857.928 465.505 859.386 465.867 860.623 466.59C861.859 467.313 862.781 468.223 863.388 469.32V465.82H866.608V485H863.388V481.43C862.758 482.55 861.813 483.483 860.553 484.23C859.316 484.953 857.869 485.315 856.213 485.315C854.509 485.315 852.969 484.895 851.593 484.055C850.216 483.215 849.131 482.037 848.338 480.52C847.544 479.003 847.148 477.277 847.148 475.34ZM863.388 475.375C863.388 473.928 863.096 472.668 862.513 471.595C861.929 470.522 861.136 469.705 860.133 469.145C859.153 468.562 858.068 468.27 856.878 468.27C855.688 468.27 854.603 468.55 853.623 469.11C852.643 469.67 851.861 470.487 851.278 471.56C850.694 472.633 850.403 473.893 850.403 475.34C850.403 476.81 850.694 478.093 851.278 479.19C851.861 480.263 852.643 481.092 853.623 481.675C854.603 482.235 855.688 482.515 856.878 482.515C858.068 482.515 859.153 482.235 860.133 481.675C861.136 481.092 861.929 480.263 862.513 479.19C863.096 478.093 863.388 476.822 863.388 475.375ZM878.78 485.315C877.31 485.315 875.992 485.07 874.825 484.58C873.658 484.067 872.737 483.367 872.06 482.48C871.383 481.57 871.01 480.532 870.94 479.365H874.23C874.323 480.322 874.767 481.103 875.56 481.71C876.377 482.317 877.438 482.62 878.745 482.62C879.958 482.62 880.915 482.352 881.615 481.815C882.315 481.278 882.665 480.602 882.665 479.785C882.665 478.945 882.292 478.327 881.545 477.93C880.798 477.51 879.643 477.102 878.08 476.705C876.657 476.332 875.49 475.958 874.58 475.585C873.693 475.188 872.923 474.617 872.27 473.87C871.64 473.1 871.325 472.097 871.325 470.86C871.325 469.88 871.617 468.982 872.2 468.165C872.783 467.348 873.612 466.707 874.685 466.24C875.758 465.75 876.983 465.505 878.36 465.505C880.483 465.505 882.198 466.042 883.505 467.115C884.812 468.188 885.512 469.658 885.605 471.525H882.42C882.35 470.522 881.942 469.717 881.195 469.11C880.472 468.503 879.492 468.2 878.255 468.2C877.112 468.2 876.202 468.445 875.525 468.935C874.848 469.425 874.51 470.067 874.51 470.86C874.51 471.49 874.708 472.015 875.105 472.435C875.525 472.832 876.038 473.158 876.645 473.415C877.275 473.648 878.138 473.917 879.235 474.22C880.612 474.593 881.732 474.967 882.595 475.34C883.458 475.69 884.193 476.227 884.8 476.95C885.43 477.673 885.757 478.618 885.78 479.785C885.78 480.835 885.488 481.78 884.905 482.62C884.322 483.46 883.493 484.125 882.42 484.615C881.37 485.082 880.157 485.315 878.78 485.315Z" fill="#002940"/>
<path d="M596 479.75L584 467.75L586.15 465.6L596 475.5L605.85 465.65L608 467.8L596 479.75Z" fill="black"/>
<path d="M653.698 558.34C653.698 556.38 654.095 554.665 654.888 553.195C655.682 551.702 656.767 550.547 658.143 549.73C659.543 548.913 661.095 548.505 662.798 548.505C664.478 548.505 665.937 548.867 667.173 549.59C668.41 550.313 669.332 551.223 669.938 552.32V548.82H673.158V568H669.938V564.43C669.308 565.55 668.363 566.483 667.103 567.23C665.867 567.953 664.42 568.315 662.763 568.315C661.06 568.315 659.52 567.895 658.143 567.055C656.767 566.215 655.682 565.037 654.888 563.52C654.095 562.003 653.698 560.277 653.698 558.34ZM669.938 558.375C669.938 556.928 669.647 555.668 669.063 554.595C668.48 553.522 667.687 552.705 666.683 552.145C665.703 551.562 664.618 551.27 663.428 551.27C662.238 551.27 661.153 551.55 660.173 552.11C659.193 552.67 658.412 553.487 657.828 554.56C657.245 555.633 656.953 556.893 656.953 558.34C656.953 559.81 657.245 561.093 657.828 562.19C658.412 563.263 659.193 564.092 660.173 564.675C661.153 565.235 662.238 565.515 663.428 565.515C664.618 565.515 665.703 565.235 666.683 564.675C667.687 564.092 668.48 563.263 669.063 562.19C669.647 561.093 669.938 559.822 669.938 558.375ZM677.351 558.34C677.351 556.38 677.747 554.665 678.541 553.195C679.334 551.702 680.419 550.547 681.796 549.73C683.196 548.913 684.759 548.505 686.486 548.505C687.979 548.505 689.367 548.855 690.651 549.555C691.934 550.232 692.914 551.13 693.591 552.25V542.1H696.811V568H693.591V564.395C692.961 565.538 692.027 566.483 690.791 567.23C689.554 567.953 688.107 568.315 686.451 568.315C684.747 568.315 683.196 567.895 681.796 567.055C680.419 566.215 679.334 565.037 678.541 563.52C677.747 562.003 677.351 560.277 677.351 558.34ZM693.591 558.375C693.591 556.928 693.299 555.668 692.716 554.595C692.132 553.522 691.339 552.705 690.336 552.145C689.356 551.562 688.271 551.27 687.081 551.27C685.891 551.27 684.806 551.55 683.826 552.11C682.846 552.67 682.064 553.487 681.481 554.56C680.897 555.633 680.606 556.893 680.606 558.34C680.606 559.81 680.897 561.093 681.481 562.19C682.064 563.263 682.846 564.092 683.826 564.675C684.806 565.235 685.891 565.515 687.081 565.515C688.271 565.515 689.356 565.235 690.336 564.675C691.339 564.092 692.132 563.263 692.716 562.19C693.299 561.093 693.591 559.822 693.591 558.375ZM701.003 558.34C701.003 556.38 701.4 554.665 702.193 553.195C702.986 551.702 704.071 550.547 705.448 549.73C706.848 548.913 708.411 548.505 710.138 548.505C711.631 548.505 713.02 548.855 714.303 549.555C715.586 550.232 716.566 551.13 717.243 552.25V542.1H720.463V568H717.243V564.395C716.613 565.538 715.68 566.483 714.443 567.23C713.206 567.953 711.76 568.315 710.103 568.315C708.4 568.315 706.848 567.895 705.448 567.055C704.071 566.215 702.986 565.037 702.193 563.52C701.4 562.003 701.003 560.277 701.003 558.34ZM717.243 558.375C717.243 556.928 716.951 555.668 716.368 554.595C715.785 553.522 714.991 552.705 713.988 552.145C713.008 551.562 711.923 551.27 710.733 551.27C709.543 551.27 708.458 551.55 707.478 552.11C706.498 552.67 705.716 553.487 705.133 554.56C704.55 555.633 704.258 556.893 704.258 558.34C704.258 559.81 704.55 561.093 705.133 562.19C705.716 563.263 706.498 564.092 707.478 564.675C708.458 565.235 709.543 565.515 710.733 565.515C711.923 565.515 713.008 565.235 713.988 564.675C714.991 564.092 715.785 563.263 716.368 562.19C716.951 561.093 717.243 559.822 717.243 558.375ZM733.986 558.34C733.986 556.38 734.383 554.665 735.176 553.195C735.97 551.702 737.055 550.547 738.431 549.73C739.831 548.913 741.383 548.505 743.086 548.505C744.766 548.505 746.225 548.867 747.461 549.59C748.698 550.313 749.62 551.223 750.226 552.32V548.82H753.446V568H750.226V564.43C749.596 565.55 748.651 566.483 747.391 567.23C746.155 567.953 744.708 568.315 743.051 568.315C741.348 568.315 739.808 567.895 738.431 567.055C737.055 566.215 735.97 565.037 735.176 563.52C734.383 562.003 733.986 560.277 733.986 558.34ZM750.226 558.375C750.226 556.928 749.935 555.668 749.351 554.595C748.768 553.522 747.975 552.705 746.971 552.145C745.991 551.562 744.906 551.27 743.716 551.27C742.526 551.27 741.441 551.55 740.461 552.11C739.481 552.67 738.7 553.487 738.116 554.56C737.533 555.633 737.241 556.893 737.241 558.34C737.241 559.81 737.533 561.093 738.116 562.19C738.7 563.263 739.481 564.092 740.461 564.675C741.441 565.235 742.526 565.515 743.716 565.515C744.906 565.515 745.991 565.235 746.971 564.675C747.975 564.092 748.768 563.263 749.351 562.19C749.935 561.093 750.226 559.822 750.226 558.375ZM768.174 548.47C770.507 548.47 772.397 549.182 773.844 550.605C775.29 552.005 776.014 554.035 776.014 556.695V568H772.864V557.15C772.864 555.237 772.385 553.778 771.429 552.775C770.472 551.748 769.165 551.235 767.509 551.235C765.829 551.235 764.487 551.76 763.484 552.81C762.504 553.86 762.014 555.388 762.014 557.395V568H758.829V548.82H762.014V551.55C762.644 550.57 763.495 549.812 764.569 549.275C765.665 548.738 766.867 548.47 768.174 548.47ZM789.581 568.315C787.785 568.315 786.151 567.907 784.681 567.09C783.235 566.273 782.091 565.118 781.251 563.625C780.435 562.108 780.026 560.358 780.026 558.375C780.026 556.415 780.446 554.688 781.286 553.195C782.15 551.678 783.316 550.523 784.786 549.73C786.256 548.913 787.901 548.505 789.721 548.505C791.541 548.505 793.186 548.913 794.656 549.73C796.126 550.523 797.281 551.667 798.121 553.16C798.985 554.653 799.416 556.392 799.416 558.375C799.416 560.358 798.973 562.108 798.086 563.625C797.223 565.118 796.045 566.273 794.551 567.09C793.058 567.907 791.401 568.315 789.581 568.315ZM789.581 565.515C790.725 565.515 791.798 565.247 792.801 564.71C793.805 564.173 794.61 563.368 795.216 562.295C795.846 561.222 796.161 559.915 796.161 558.375C796.161 556.835 795.858 555.528 795.251 554.455C794.645 553.382 793.851 552.588 792.871 552.075C791.891 551.538 790.83 551.27 789.686 551.27C788.52 551.27 787.446 551.538 786.466 552.075C785.51 552.588 784.74 553.382 784.156 554.455C783.573 555.528 783.281 556.835 783.281 558.375C783.281 559.938 783.561 561.257 784.121 562.33C784.705 563.403 785.475 564.208 786.431 564.745C787.388 565.258 788.438 565.515 789.581 565.515ZM807.489 551.445V562.75C807.489 563.683 807.688 564.348 808.084 564.745C808.481 565.118 809.169 565.305 810.149 565.305H812.494V568H809.624C807.851 568 806.521 567.592 805.634 566.775C804.748 565.958 804.304 564.617 804.304 562.75V551.445H801.819V548.82H804.304V543.99H807.489V548.82H812.494V551.445H807.489ZM825.873 548.47C827.32 548.47 828.627 548.785 829.793 549.415C830.96 550.022 831.87 550.943 832.523 552.18C833.2 553.417 833.538 554.922 833.538 556.695V568H830.388V557.15C830.388 555.237 829.91 553.778 828.953 552.775C827.997 551.748 826.69 551.235 825.033 551.235C823.353 551.235 822.012 551.76 821.008 552.81C820.028 553.86 819.538 555.388 819.538 557.395V568H816.353V542.1H819.538V551.55C820.168 550.57 821.032 549.812 822.128 549.275C823.248 548.738 824.497 548.47 825.873 548.47ZM856.241 557.675C856.241 558.282 856.206 558.923 856.136 559.6H840.806C840.923 561.49 841.564 562.972 842.731 564.045C843.921 565.095 845.356 565.62 847.036 565.62C848.413 565.62 849.556 565.305 850.466 564.675C851.399 564.022 852.053 563.158 852.426 562.085H855.856C855.343 563.928 854.316 565.433 852.776 566.6C851.236 567.743 849.323 568.315 847.036 568.315C845.216 568.315 843.583 567.907 842.136 567.09C840.713 566.273 839.593 565.118 838.776 563.625C837.959 562.108 837.551 560.358 837.551 558.375C837.551 556.392 837.948 554.653 838.741 553.16C839.534 551.667 840.643 550.523 842.066 549.73C843.513 548.913 845.169 548.505 847.036 548.505C848.856 548.505 850.466 548.902 851.866 549.695C853.266 550.488 854.339 551.585 855.086 552.985C855.856 554.362 856.241 555.925 856.241 557.675ZM852.951 557.01C852.951 555.797 852.683 554.758 852.146 553.895C851.609 553.008 850.874 552.343 849.941 551.9C849.031 551.433 848.016 551.2 846.896 551.2C845.286 551.2 843.909 551.713 842.766 552.74C841.646 553.767 841.004 555.19 840.841 557.01H852.951ZM863.63 551.935C864.19 550.838 864.983 549.987 866.01 549.38C867.06 548.773 868.332 548.47 869.825 548.47V551.76H868.985C865.415 551.76 863.63 553.697 863.63 557.57V568H860.445V548.82H863.63V551.935Z" fill="#002940"/>
<path d="M594.762 567.167H597.512V559.558H605.166V556.808H597.512V548.833H594.762V556.808H586.833V559.558H594.762V567.167ZM596.012 576.333C593.484 576.333 591.108 575.852 588.884 574.889C586.661 573.927 584.717 572.613 583.051 570.948C581.386 569.282 580.072 567.337 579.11 565.111C578.147 562.886 577.666 560.508 577.666 557.977C577.666 555.446 578.147 553.068 579.11 550.843C580.072 548.617 581.386 546.679 583.051 545.029C584.717 543.379 586.662 542.073 588.888 541.11C591.114 540.148 593.492 539.667 596.022 539.667C598.553 539.667 600.931 540.148 603.157 541.11C605.382 542.073 607.32 543.379 608.97 545.029C610.62 546.679 611.926 548.619 612.889 550.85C613.851 553.08 614.333 555.46 614.333 557.988C614.333 560.516 613.851 562.891 612.889 565.115C611.926 567.338 610.62 569.28 608.97 570.939C607.32 572.599 605.38 573.913 603.149 574.881C600.919 575.849 598.54 576.333 596.012 576.333ZM596.022 573.583C600.346 573.583 604.02 572.063 607.045 569.023C610.07 565.982 611.583 562.301 611.583 557.977C611.583 553.653 610.073 549.979 607.054 546.954C604.035 543.929 600.35 542.417 595.999 542.417C591.691 542.417 588.017 543.926 584.976 546.945C581.936 549.965 580.416 553.649 580.416 558C580.416 562.308 581.936 565.982 584.976 569.023C588.017 572.063 591.699 573.583 596.022 573.583Z" fill="black"/>
<rect x="535.5" y="528.5" width="405" height="58" rx="29" stroke="black" stroke-dasharray="2 2"/>
<path d="M282.558 710.92C282.558 708.495 283.034 706.344 283.987 704.468C284.968 702.592 286.282 701.148 287.927 700.138C289.601 699.128 291.463 698.623 293.512 698.623C295.302 698.623 296.861 698.983 298.189 699.705C299.545 700.427 300.628 701.336 301.436 702.433V699.012H307.541V723H301.436V719.493C300.657 720.619 299.574 721.557 298.189 722.307C296.832 723.029 295.259 723.39 293.469 723.39C291.449 723.39 289.601 722.87 287.927 721.831C286.282 720.792 284.968 719.334 283.987 717.458C283.034 715.553 282.558 713.373 282.558 710.92ZM301.436 711.006C301.436 709.534 301.148 708.278 300.57 707.239C299.993 706.171 299.214 705.363 298.232 704.814C297.251 704.237 296.197 703.948 295.071 703.948C293.945 703.948 292.906 704.223 291.954 704.771C291.001 705.32 290.222 706.128 289.616 707.196C289.038 708.235 288.75 709.476 288.75 710.92C288.75 712.363 289.038 713.633 289.616 714.73C290.222 715.798 291.001 716.621 291.954 717.198C292.935 717.775 293.974 718.064 295.071 718.064C296.197 718.064 297.251 717.79 298.232 717.241C299.214 716.664 299.993 715.856 300.57 714.816C301.148 713.748 301.436 712.478 301.436 711.006ZM343.252 698.666C346.196 698.666 348.563 699.575 350.353 701.394C352.171 703.183 353.081 705.695 353.081 708.928V723H347.019V709.75C347.019 707.874 346.542 706.445 345.59 705.464C344.637 704.454 343.338 703.948 341.693 703.948C340.047 703.948 338.734 704.454 337.753 705.464C336.8 706.445 336.324 707.874 336.324 709.75V723H330.262V709.75C330.262 707.874 329.786 706.445 328.833 705.464C327.88 704.454 326.581 703.948 324.936 703.948C323.262 703.948 321.934 704.454 320.953 705.464C320 706.445 319.524 707.874 319.524 709.75V723H313.462V699.012H319.524V701.913C320.303 700.903 321.299 700.109 322.511 699.532C323.753 698.955 325.109 698.666 326.581 698.666C328.458 698.666 330.132 699.07 331.604 699.878C333.076 700.658 334.217 701.783 335.025 703.256C335.804 701.87 336.93 700.759 338.402 699.922C339.903 699.084 341.52 698.666 343.252 698.666ZM369.484 723.39C367.175 723.39 365.097 722.885 363.249 721.874C361.402 720.835 359.944 719.377 358.876 717.501C357.837 715.625 357.317 713.46 357.317 711.006C357.317 708.553 357.851 706.388 358.919 704.511C360.016 702.635 361.503 701.192 363.379 700.181C365.256 699.142 367.348 698.623 369.658 698.623C371.967 698.623 374.06 699.142 375.936 700.181C377.812 701.192 379.284 702.635 380.353 704.511C381.449 706.388 381.998 708.553 381.998 711.006C381.998 713.46 381.435 715.625 380.309 717.501C379.212 719.377 377.711 720.835 375.806 721.874C373.93 722.885 371.823 723.39 369.484 723.39ZM369.484 718.107C370.581 718.107 371.606 717.847 372.559 717.328C373.54 716.779 374.32 715.971 374.897 714.903C375.474 713.835 375.763 712.536 375.763 711.006C375.763 708.726 375.157 706.979 373.944 705.767C372.761 704.526 371.303 703.905 369.571 703.905C367.839 703.905 366.381 704.526 365.198 705.767C364.043 706.979 363.466 708.726 363.466 711.006C363.466 713.287 364.029 715.047 365.155 716.289C366.309 717.501 367.752 718.107 369.484 718.107ZM409.09 699.012V723H402.985V719.969C402.205 721.008 401.181 721.831 399.91 722.437C398.669 723.014 397.313 723.303 395.84 723.303C393.964 723.303 392.304 722.913 390.861 722.134C389.418 721.326 388.277 720.157 387.44 718.627C386.632 717.068 386.228 715.221 386.228 713.085V699.012H392.29V712.219C392.29 714.124 392.766 715.596 393.719 716.635C394.671 717.645 395.97 718.151 397.616 718.151C399.29 718.151 400.603 717.645 401.556 716.635C402.508 715.596 402.985 714.124 402.985 712.219V699.012H409.09ZM428.364 698.666C431.221 698.666 433.531 699.575 435.292 701.394C437.052 703.183 437.933 705.695 437.933 708.928V723H431.871V709.75C431.871 707.845 431.395 706.388 430.442 705.377C429.49 704.338 428.191 703.819 426.545 703.819C424.871 703.819 423.543 704.338 422.562 705.377C421.609 706.388 421.133 707.845 421.133 709.75V723H415.071V699.012H421.133V702C421.941 700.961 422.966 700.153 424.207 699.575C425.477 698.969 426.863 698.666 428.364 698.666ZM450.755 703.992V715.596C450.755 716.404 450.943 716.996 451.318 717.371C451.722 717.718 452.386 717.891 453.31 717.891H456.124V723H452.314C447.205 723 444.65 720.518 444.65 715.553V703.992H441.792V699.012H444.65V693.08H450.755V699.012H456.124V703.992H450.755ZM463.169 723.303C462.072 723.303 461.163 722.971 460.441 722.307C459.748 721.614 459.402 720.763 459.402 719.753C459.402 718.742 459.748 717.905 460.441 717.241C461.163 716.548 462.072 716.202 463.169 716.202C464.237 716.202 465.117 716.548 465.81 717.241C466.503 717.905 466.849 718.742 466.849 719.753C466.849 720.763 466.503 721.614 465.81 722.307C465.117 722.971 464.237 723.303 463.169 723.303ZM463.169 705.377C462.072 705.377 461.163 705.045 460.441 704.381C459.748 703.689 459.402 702.837 459.402 701.827C459.402 700.816 459.748 699.979 460.441 699.315C461.163 698.623 462.072 698.276 463.169 698.276C464.237 698.276 465.117 698.623 465.81 699.315C466.503 699.979 466.849 700.816 466.849 701.827C466.849 702.837 466.503 703.689 465.81 704.381C465.117 705.045 464.237 705.377 463.169 705.377Z" fill="#002940"/>
<path d="M781.275 707.085C781.275 703.072 781.929 699.945 783.235 697.705C784.542 695.442 786.829 694.31 790.095 694.31C793.339 694.31 795.614 695.442 796.92 697.705C798.227 699.945 798.88 703.072 798.88 707.085C798.88 711.168 798.227 714.342 796.92 716.605C795.614 718.868 793.339 720 790.095 720C786.829 720 784.542 718.868 783.235 716.605C781.929 714.342 781.275 711.168 781.275 707.085ZM795.73 707.085C795.73 705.055 795.59 703.34 795.31 701.94C795.054 700.517 794.505 699.373 793.665 698.51C792.849 697.647 791.659 697.215 790.095 697.215C788.509 697.215 787.295 697.647 786.455 698.51C785.639 699.373 785.09 700.517 784.81 701.94C784.554 703.34 784.425 705.055 784.425 707.085C784.425 709.185 784.554 710.947 784.81 712.37C785.09 713.793 785.639 714.937 786.455 715.8C787.295 716.663 788.509 717.095 790.095 717.095C791.659 717.095 792.849 716.663 793.665 715.8C794.505 714.937 795.054 713.793 795.31 712.37C795.59 710.947 795.73 709.185 795.73 707.085ZM830.119 700.82V720H826.934V717.165C826.327 718.145 825.476 718.915 824.379 719.475C823.306 720.012 822.116 720.28 820.809 720.28C819.316 720.28 817.974 719.977 816.784 719.37C815.594 718.74 814.649 717.807 813.949 716.57C813.272 715.333 812.934 713.828 812.934 712.055V700.82H816.084V711.635C816.084 713.525 816.562 714.983 817.519 716.01C818.476 717.013 819.782 717.515 821.439 717.515C823.142 717.515 824.484 716.99 825.464 715.94C826.444 714.89 826.934 713.362 826.934 711.355V700.82H830.119ZM842.287 720.315C840.817 720.315 839.498 720.07 838.332 719.58C837.165 719.067 836.243 718.367 835.567 717.48C834.89 716.57 834.517 715.532 834.447 714.365H837.737C837.83 715.322 838.273 716.103 839.067 716.71C839.883 717.317 840.945 717.62 842.252 717.62C843.465 717.62 844.422 717.352 845.122 716.815C845.822 716.278 846.172 715.602 846.172 714.785C846.172 713.945 845.798 713.327 845.052 712.93C844.305 712.51 843.15 712.102 841.587 711.705C840.163 711.332 838.997 710.958 838.087 710.585C837.2 710.188 836.43 709.617 835.777 708.87C835.147 708.1 834.832 707.097 834.832 705.86C834.832 704.88 835.123 703.982 835.707 703.165C836.29 702.348 837.118 701.707 838.192 701.24C839.265 700.75 840.49 700.505 841.867 700.505C843.99 700.505 845.705 701.042 847.012 702.115C848.318 703.188 849.018 704.658 849.112 706.525H845.927C845.857 705.522 845.448 704.717 844.702 704.11C843.978 703.503 842.998 703.2 841.762 703.2C840.618 703.2 839.708 703.445 839.032 703.935C838.355 704.425 838.017 705.067 838.017 705.86C838.017 706.49 838.215 707.015 838.612 707.435C839.032 707.832 839.545 708.158 840.152 708.415C840.782 708.648 841.645 708.917 842.742 709.22C844.118 709.593 845.238 709.967 846.102 710.34C846.965 710.69 847.7 711.227 848.307 711.95C848.937 712.673 849.263 713.618 849.287 714.785C849.287 715.835 848.995 716.78 848.412 717.62C847.828 718.46 847 719.125 845.927 719.615C844.877 720.082 843.663 720.315 842.287 720.315ZM852.593 710.34C852.593 708.38 852.99 706.665 853.783 705.195C854.576 703.702 855.661 702.547 857.038 701.73C858.438 700.913 860.001 700.505 861.728 700.505C863.221 700.505 864.61 700.855 865.893 701.555C867.176 702.232 868.156 703.13 868.833 704.25V694.1H872.053V720H868.833V716.395C868.203 717.538 867.27 718.483 866.033 719.23C864.796 719.953 863.35 720.315 861.693 720.315C859.99 720.315 858.438 719.895 857.038 719.055C855.661 718.215 854.576 717.037 853.783 715.52C852.99 714.003 852.593 712.277 852.593 710.34ZM868.833 710.375C868.833 708.928 868.541 707.668 867.958 706.595C867.375 705.522 866.581 704.705 865.578 704.145C864.598 703.562 863.513 703.27 862.323 703.27C861.133 703.27 860.048 703.55 859.068 704.11C858.088 704.67 857.306 705.487 856.723 706.56C856.14 707.633 855.848 708.893 855.848 710.34C855.848 711.81 856.14 713.093 856.723 714.19C857.306 715.263 858.088 716.092 859.068 716.675C860.048 717.235 861.133 717.515 862.323 717.515C863.513 717.515 864.598 717.235 865.578 716.675C866.581 716.092 867.375 715.263 867.958 714.19C868.541 713.093 868.833 711.822 868.833 710.375ZM876.245 710.375C876.245 708.392 876.642 706.665 877.435 705.195C878.229 703.702 879.325 702.547 880.725 701.73C882.149 700.913 883.77 700.505 885.59 700.505C887.947 700.505 889.884 701.077 891.4 702.22C892.94 703.363 893.955 704.95 894.445 706.98H891.015C890.689 705.813 890.047 704.892 889.09 704.215C888.157 703.538 886.99 703.2 885.59 703.2C883.77 703.2 882.3 703.83 881.18 705.09C880.06 706.327 879.5 708.088 879.5 710.375C879.5 712.685 880.06 714.47 881.18 715.73C882.3 716.99 883.77 717.62 885.59 717.62C886.99 717.62 888.157 717.293 889.09 716.64C890.024 715.987 890.665 715.053 891.015 713.84H894.445C893.932 715.8 892.905 717.375 891.365 718.565C889.825 719.732 887.9 720.315 885.59 720.315C883.77 720.315 882.149 719.907 880.725 719.09C879.325 718.273 878.229 717.118 877.435 715.625C876.642 714.132 876.245 712.382 876.245 710.375Z" fill="#002940"/>
<path d="M456.269 1066.96C456.269 1064.69 456.722 1062.71 457.629 1061C458.562 1059.27 459.842 1057.93 461.469 1057C463.096 1056.07 464.962 1055.6 467.069 1055.6C469.736 1055.6 471.936 1056.24 473.669 1057.52C475.429 1058.77 476.616 1060.57 477.229 1062.92H472.309C471.909 1061.83 471.269 1060.97 470.389 1060.36C469.509 1059.75 468.402 1059.44 467.069 1059.44C465.202 1059.44 463.709 1060.11 462.589 1061.44C461.496 1062.75 460.949 1064.59 460.949 1066.96C460.949 1069.33 461.496 1071.19 462.589 1072.52C463.709 1073.85 465.202 1074.52 467.069 1074.52C469.709 1074.52 471.456 1073.36 472.309 1071.04H477.229C476.589 1073.28 475.389 1075.07 473.629 1076.4C471.869 1077.71 469.682 1078.36 467.069 1078.36C464.962 1078.36 463.096 1077.89 461.469 1076.96C459.842 1076 458.562 1074.67 457.629 1072.96C456.722 1071.23 456.269 1069.23 456.269 1066.96ZM491.333 1078.36C489.253 1078.36 487.373 1077.89 485.693 1076.96C484.013 1076 482.693 1074.67 481.733 1072.96C480.773 1071.23 480.293 1069.23 480.293 1066.96C480.293 1064.72 480.787 1062.73 481.773 1061C482.76 1059.27 484.107 1057.93 485.813 1057C487.52 1056.07 489.427 1055.6 491.533 1055.6C493.64 1055.6 495.547 1056.07 497.253 1057C498.96 1057.93 500.307 1059.27 501.293 1061C502.28 1062.73 502.773 1064.72 502.773 1066.96C502.773 1069.2 502.267 1071.19 501.253 1072.92C500.24 1074.65 498.853 1076 497.093 1076.96C495.36 1077.89 493.44 1078.36 491.333 1078.36ZM491.333 1074.4C492.507 1074.4 493.6 1074.12 494.613 1073.56C495.653 1073 496.493 1072.16 497.133 1071.04C497.773 1069.92 498.093 1068.56 498.093 1066.96C498.093 1065.36 497.787 1064.01 497.173 1062.92C496.56 1061.8 495.747 1060.96 494.733 1060.4C493.72 1059.84 492.627 1059.56 491.453 1059.56C490.28 1059.56 489.187 1059.84 488.173 1060.4C487.187 1060.96 486.4 1061.8 485.813 1062.92C485.227 1064.01 484.933 1065.36 484.933 1066.96C484.933 1069.33 485.533 1071.17 486.733 1072.48C487.96 1073.76 489.493 1074.4 491.333 1074.4ZM518.401 1055.6C520.135 1055.6 521.681 1055.96 523.041 1056.68C524.428 1057.4 525.508 1058.47 526.281 1059.88C527.055 1061.29 527.441 1063 527.441 1065V1078H522.921V1065.68C522.921 1063.71 522.428 1062.2 521.441 1061.16C520.455 1060.09 519.108 1059.56 517.401 1059.56C515.695 1059.56 514.335 1060.09 513.321 1061.16C512.335 1062.2 511.841 1063.71 511.841 1065.68V1078H507.281V1055.96H511.841V1058.48C512.588 1057.57 513.535 1056.87 514.681 1056.36C515.855 1055.85 517.095 1055.6 518.401 1055.6ZM542.498 1059.68H538.418V1078H533.818V1059.68H531.218V1055.96H533.818V1054.4C533.818 1051.87 534.484 1050.03 535.818 1048.88C537.178 1047.71 539.298 1047.12 542.178 1047.12V1050.92C540.791 1050.92 539.818 1051.19 539.258 1051.72C538.698 1052.23 538.418 1053.12 538.418 1054.4V1055.96H542.498V1059.68ZM548.859 1053.04C548.032 1053.04 547.339 1052.76 546.779 1052.2C546.219 1051.64 545.939 1050.95 545.939 1050.12C545.939 1049.29 546.219 1048.6 546.779 1048.04C547.339 1047.48 548.032 1047.2 548.859 1047.2C549.659 1047.2 550.339 1047.48 550.899 1048.04C551.459 1048.6 551.739 1049.29 551.739 1050.12C551.739 1050.95 551.459 1051.64 550.899 1052.2C550.339 1052.76 549.659 1053.04 548.859 1053.04ZM551.099 1055.96V1078H546.539V1055.96H551.099ZM561.646 1059.16C562.313 1058.04 563.193 1057.17 564.286 1056.56C565.406 1055.92 566.726 1055.6 568.246 1055.6V1060.32H567.086C565.299 1060.32 563.939 1060.77 563.006 1061.68C562.099 1062.59 561.646 1064.16 561.646 1066.4V1078H557.086V1055.96H561.646V1059.16ZM599.118 1055.6C600.851 1055.6 602.398 1055.96 603.758 1056.68C605.144 1057.4 606.224 1058.47 606.998 1059.88C607.798 1061.29 608.198 1063 608.198 1065V1078H603.678V1065.68C603.678 1063.71 603.184 1062.2 602.198 1061.16C601.211 1060.09 599.864 1059.56 598.158 1059.56C596.451 1059.56 595.091 1060.09 594.078 1061.16C593.091 1062.2 592.598 1063.71 592.598 1065.68V1078H588.078V1065.68C588.078 1063.71 587.584 1062.2 586.598 1061.16C585.611 1060.09 584.264 1059.56 582.558 1059.56C580.851 1059.56 579.491 1060.09 578.478 1061.16C577.491 1062.2 576.998 1063.71 576.998 1065.68V1078H572.438V1055.96H576.998V1058.48C577.744 1057.57 578.691 1056.87 579.838 1056.36C580.984 1055.85 582.211 1055.6 583.518 1055.6C585.278 1055.6 586.851 1055.97 588.238 1056.72C589.624 1057.47 590.691 1058.55 591.438 1059.96C592.104 1058.63 593.144 1057.57 594.558 1056.8C595.971 1056 597.491 1055.6 599.118 1055.6Z" fill="#002940"/>
<path d="M78.545 253.845C78.545 250.872 79.2089 248.216 80.5367 245.878C81.8934 243.511 83.7264 241.678 86.0357 240.379C88.3739 239.051 90.9862 238.388 93.8728 238.388C97.2502 238.388 100.209 239.254 102.749 240.985C105.289 242.717 107.065 245.113 108.075 248.173H101.104C100.411 246.73 99.4295 245.647 98.1594 244.926C96.9182 244.204 95.4749 243.843 93.8295 243.843C92.0687 243.843 90.4955 244.262 89.1099 245.099C87.7532 245.907 86.6852 247.062 85.9058 248.563C85.1553 250.064 84.78 251.825 84.78 253.845C84.78 255.837 85.1553 257.598 85.9058 259.128C86.6852 260.629 87.7532 261.798 89.1099 262.635C90.4955 263.443 92.0687 263.847 93.8295 263.847C95.4749 263.847 96.9182 263.487 98.1594 262.765C99.4295 262.014 100.411 260.918 101.104 259.474H108.075C107.065 262.563 105.289 264.973 102.749 266.705C100.238 268.408 97.279 269.26 93.8728 269.26C90.9862 269.26 88.3739 268.61 86.0357 267.311C83.7264 265.983 81.8934 264.151 80.5367 261.812C79.2089 259.474 78.545 256.819 78.545 253.845ZM126.762 244.666C128.58 244.666 130.197 245.07 131.611 245.878C133.026 246.658 134.123 247.827 134.902 249.386C135.71 250.915 136.114 252.763 136.114 254.928V269H130.053V255.75C130.053 253.845 129.576 252.388 128.624 251.377C127.671 250.338 126.372 249.819 124.727 249.819C123.053 249.819 121.725 250.338 120.743 251.377C119.791 252.388 119.314 253.845 119.314 255.75V269H113.253V236.959H119.314V248C120.094 246.961 121.133 246.153 122.432 245.575C123.731 244.969 125.174 244.666 126.762 244.666ZM152.531 269.39C150.221 269.39 148.143 268.885 146.295 267.874C144.448 266.835 142.99 265.377 141.922 263.501C140.883 261.625 140.364 259.46 140.364 257.006C140.364 254.553 140.898 252.388 141.966 250.511C143.063 248.635 144.549 247.192 146.425 246.181C148.302 245.142 150.394 244.623 152.704 244.623C155.013 244.623 157.106 245.142 158.982 246.181C160.858 247.192 162.331 248.635 163.399 250.511C164.496 252.388 165.044 254.553 165.044 257.006C165.044 259.46 164.481 261.625 163.355 263.501C162.258 265.377 160.757 266.835 158.852 267.874C156.976 268.885 154.869 269.39 152.531 269.39ZM152.531 264.107C153.627 264.107 154.652 263.847 155.605 263.328C156.586 262.779 157.366 261.971 157.943 260.903C158.52 259.835 158.809 258.536 158.809 257.006C158.809 254.726 158.203 252.979 156.99 251.767C155.807 250.526 154.349 249.905 152.617 249.905C150.885 249.905 149.427 250.526 148.244 251.767C147.089 252.979 146.512 254.726 146.512 257.006C146.512 259.287 147.075 261.047 148.201 262.289C149.355 263.501 150.799 264.107 152.531 264.107ZM180.142 269.39C177.833 269.39 175.755 268.885 173.907 267.874C172.06 266.835 170.602 265.377 169.534 263.501C168.495 261.625 167.975 259.46 167.975 257.006C167.975 254.553 168.509 252.388 169.577 250.511C170.674 248.635 172.161 247.192 174.037 246.181C175.913 245.142 178.006 244.623 180.315 244.623C182.625 244.623 184.717 245.142 186.594 246.181C188.47 247.192 189.942 248.635 191.01 250.511C192.107 252.388 192.656 254.553 192.656 257.006C192.656 259.46 192.093 261.625 190.967 263.501C189.87 265.377 188.369 266.835 186.464 267.874C184.588 268.885 182.48 269.39 180.142 269.39ZM180.142 264.107C181.239 264.107 182.264 263.847 183.216 263.328C184.198 262.779 184.977 261.971 185.555 260.903C186.132 259.835 186.421 258.536 186.421 257.006C186.421 254.726 185.814 252.979 184.602 251.767C183.418 250.526 181.961 249.905 180.229 249.905C178.497 249.905 177.039 250.526 175.856 251.767C174.701 252.979 174.124 254.726 174.124 257.006C174.124 259.287 174.686 261.047 175.812 262.289C176.967 263.501 178.41 264.107 180.142 264.107ZM206.282 269.39C204.319 269.39 202.558 269.043 200.999 268.351C199.44 267.629 198.199 266.662 197.275 265.449C196.381 264.237 195.89 262.895 195.803 261.423H201.908C202.024 262.346 202.471 263.111 203.251 263.718C204.059 264.324 205.055 264.627 206.238 264.627C207.393 264.627 208.288 264.396 208.923 263.934C209.587 263.472 209.919 262.88 209.919 262.159C209.919 261.379 209.515 260.802 208.706 260.427C207.927 260.023 206.671 259.59 204.939 259.128C203.15 258.695 201.677 258.247 200.523 257.786C199.397 257.324 198.416 256.616 197.579 255.664C196.77 254.711 196.366 253.427 196.366 251.81C196.366 250.482 196.741 249.27 197.492 248.173C198.271 247.076 199.368 246.21 200.783 245.575C202.226 244.94 203.915 244.623 205.849 244.623C208.706 244.623 210.987 245.344 212.69 246.788C214.393 248.202 215.331 250.122 215.504 252.546H209.702C209.616 251.594 209.212 250.843 208.49 250.295C207.797 249.717 206.859 249.429 205.675 249.429C204.579 249.429 203.727 249.631 203.121 250.035C202.543 250.439 202.255 251.002 202.255 251.724C202.255 252.532 202.659 253.153 203.467 253.586C204.275 253.99 205.531 254.408 207.234 254.841C208.966 255.274 210.395 255.722 211.521 256.183C212.647 256.645 213.614 257.367 214.422 258.348C215.259 259.301 215.692 260.571 215.721 262.159C215.721 263.544 215.331 264.786 214.552 265.882C213.801 266.979 212.704 267.845 211.261 268.48C209.847 269.087 208.187 269.39 206.282 269.39ZM242.996 256.487C242.996 257.353 242.938 258.132 242.823 258.825H225.287C225.431 260.557 226.037 261.913 227.105 262.895C228.173 263.876 229.487 264.367 231.045 264.367C233.297 264.367 234.899 263.4 235.852 261.466H242.39C241.697 263.775 240.369 265.68 238.406 267.181C236.443 268.654 234.033 269.39 231.175 269.39C228.866 269.39 226.788 268.885 224.94 267.874C223.122 266.835 221.693 265.377 220.654 263.501C219.643 261.625 219.138 259.46 219.138 257.006C219.138 254.524 219.643 252.344 220.654 250.468C221.664 248.592 223.078 247.148 224.897 246.138C226.715 245.128 228.808 244.623 231.175 244.623C233.456 244.623 235.491 245.113 237.28 246.095C239.099 247.076 240.499 248.476 241.48 250.295C242.491 252.084 242.996 254.148 242.996 256.487ZM236.717 254.755C236.689 253.196 236.126 251.955 235.029 251.031C233.932 250.078 232.59 249.602 231.002 249.602C229.501 249.602 228.231 250.064 227.192 250.988C226.181 251.882 225.561 253.138 225.33 254.755H236.717ZM256.179 257.006C256.179 254.524 256.684 252.359 257.695 250.511C258.705 248.635 260.105 247.192 261.895 246.181C263.684 245.142 265.734 244.623 268.043 244.623C271.016 244.623 273.47 245.373 275.404 246.874C277.367 248.346 278.68 250.425 279.344 253.109H272.806C272.46 252.07 271.868 251.262 271.031 250.684C270.222 250.078 269.212 249.775 268 249.775C266.268 249.775 264.897 250.41 263.886 251.68C262.876 252.922 262.371 254.697 262.371 257.006C262.371 259.287 262.876 261.062 263.886 262.332C264.897 263.573 266.268 264.194 268 264.194C270.453 264.194 272.055 263.097 272.806 260.903H279.344C278.68 263.501 277.367 265.565 275.404 267.095C273.441 268.625 270.987 269.39 268.043 269.39C265.734 269.39 263.684 268.885 261.895 267.874C260.105 266.835 258.705 265.392 257.695 263.544C256.684 261.668 256.179 259.489 256.179 257.006ZM294.437 269.39C292.127 269.39 290.049 268.885 288.201 267.874C286.354 266.835 284.896 265.377 283.828 263.501C282.789 261.625 282.269 259.46 282.269 257.006C282.269 254.553 282.803 252.388 283.872 250.511C284.968 248.635 286.455 247.192 288.331 246.181C290.208 245.142 292.3 244.623 294.61 244.623C296.919 244.623 299.012 245.142 300.888 246.181C302.764 247.192 304.237 248.635 305.305 250.511C306.401 252.388 306.95 254.553 306.95 257.006C306.95 259.46 306.387 261.625 305.261 263.501C304.164 265.377 302.663 266.835 300.758 267.874C298.882 268.885 296.775 269.39 294.437 269.39ZM294.437 264.107C295.533 264.107 296.558 263.847 297.511 263.328C298.492 262.779 299.272 261.971 299.849 260.903C300.426 259.835 300.715 258.536 300.715 257.006C300.715 254.726 300.109 252.979 298.896 251.767C297.713 250.526 296.255 249.905 294.523 249.905C292.791 249.905 291.333 250.526 290.15 251.767C288.995 252.979 288.418 254.726 288.418 257.006C288.418 259.287 288.981 261.047 290.107 262.289C291.261 263.501 292.705 264.107 294.437 264.107ZM324.689 244.666C327.547 244.666 329.856 245.575 331.617 247.394C333.378 249.183 334.258 251.695 334.258 254.928V269H328.197V255.75C328.197 253.845 327.72 252.388 326.768 251.377C325.815 250.338 324.516 249.819 322.871 249.819C321.197 249.819 319.869 250.338 318.887 251.377C317.935 252.388 317.458 253.845 317.458 255.75V269H311.397V245.012H317.458V248C318.267 246.961 319.291 246.153 320.533 245.575C321.803 244.969 323.188 244.666 324.689 244.666ZM347.081 249.992V261.596C347.081 262.404 347.268 262.996 347.644 263.371C348.048 263.718 348.712 263.891 349.635 263.891H352.45V269H348.639C343.53 269 340.976 266.518 340.976 261.553V249.992H338.118V245.012H340.976V239.08H347.081V245.012H352.45V249.992H347.081ZM355.251 256.92C355.251 254.495 355.727 252.344 356.68 250.468C357.661 248.592 358.975 247.148 360.62 246.138C362.294 245.128 364.156 244.623 366.206 244.623C367.995 244.623 369.554 244.983 370.882 245.705C372.239 246.427 373.321 247.336 374.129 248.433V245.012H380.235V269H374.129V265.493C373.35 266.619 372.268 267.557 370.882 268.307C369.525 269.029 367.952 269.39 366.162 269.39C364.142 269.39 362.294 268.87 360.62 267.831C358.975 266.792 357.661 265.334 356.68 263.458C355.727 261.553 355.251 259.373 355.251 256.92ZM374.129 257.006C374.129 255.534 373.841 254.278 373.263 253.239C372.686 252.171 371.907 251.363 370.925 250.814C369.944 250.237 368.89 249.948 367.765 249.948C366.639 249.948 365.6 250.223 364.647 250.771C363.694 251.32 362.915 252.128 362.309 253.196C361.732 254.235 361.443 255.476 361.443 256.92C361.443 258.363 361.732 259.633 362.309 260.73C362.915 261.798 363.694 262.621 364.647 263.198C365.628 263.775 366.668 264.064 367.765 264.064C368.89 264.064 369.944 263.79 370.925 263.241C371.907 262.664 372.686 261.856 373.263 260.816C373.841 259.748 374.129 258.478 374.129 257.006ZM384.596 257.006C384.596 254.524 385.102 252.359 386.112 250.511C387.122 248.635 388.522 247.192 390.312 246.181C392.102 245.142 394.151 244.623 396.46 244.623C399.433 244.623 401.887 245.373 403.821 246.874C405.784 248.346 407.097 250.425 407.761 253.109H401.223C400.877 252.07 400.285 251.262 399.448 250.684C398.64 250.078 397.629 249.775 396.417 249.775C394.685 249.775 393.314 250.41 392.304 251.68C391.293 252.922 390.788 254.697 390.788 257.006C390.788 259.287 391.293 261.062 392.304 262.332C393.314 263.573 394.685 264.194 396.417 264.194C398.871 264.194 400.473 263.097 401.223 260.903H407.761C407.097 263.501 405.784 265.565 403.821 267.095C401.858 268.625 399.405 269.39 396.46 269.39C394.151 269.39 392.102 268.885 390.312 267.874C388.522 266.835 387.122 265.392 386.112 263.544C385.102 261.668 384.596 259.489 384.596 257.006ZM419.26 249.992V261.596C419.26 262.404 419.448 262.996 419.823 263.371C420.227 263.718 420.891 263.891 421.815 263.891H424.629V269H420.819C415.709 269 413.155 266.518 413.155 261.553V249.992H410.297V245.012H413.155V239.08H419.26V245.012H424.629V249.992H419.26ZM438.168 269.39C436.206 269.39 434.445 269.043 432.886 268.351C431.327 267.629 430.086 266.662 429.162 265.449C428.267 264.237 427.777 262.895 427.69 261.423H433.795C433.911 262.346 434.358 263.111 435.138 263.718C435.946 264.324 436.942 264.627 438.125 264.627C439.28 264.627 440.175 264.396 440.81 263.934C441.474 263.472 441.806 262.88 441.806 262.159C441.806 261.379 441.401 260.802 440.593 260.427C439.814 260.023 438.558 259.59 436.826 259.128C435.036 258.695 433.564 258.247 432.41 257.786C431.284 257.324 430.302 256.616 429.465 255.664C428.657 254.711 428.253 253.427 428.253 251.81C428.253 250.482 428.628 249.27 429.379 248.173C430.158 247.076 431.255 246.21 432.669 245.575C434.113 244.94 435.801 244.623 437.735 244.623C440.593 244.623 442.874 245.344 444.577 246.788C446.28 248.202 447.218 250.122 447.391 252.546H441.589C441.502 251.594 441.098 250.843 440.377 250.295C439.684 249.717 438.746 249.429 437.562 249.429C436.465 249.429 435.614 249.631 435.008 250.035C434.43 250.439 434.142 251.002 434.142 251.724C434.142 252.532 434.546 253.153 435.354 253.586C436.162 253.99 437.418 254.408 439.121 254.841C440.853 255.274 442.282 255.722 443.408 256.183C444.533 256.645 445.5 257.367 446.309 258.348C447.146 259.301 447.579 260.571 447.608 262.159C447.608 263.544 447.218 264.786 446.439 265.882C445.688 266.979 444.591 267.845 443.148 268.48C441.733 269.087 440.074 269.39 438.168 269.39ZM455.268 269.303C454.171 269.303 453.262 268.971 452.54 268.307C451.848 267.614 451.501 266.763 451.501 265.753C451.501 264.742 451.848 263.905 452.54 263.241C453.262 262.548 454.171 262.202 455.268 262.202C456.336 262.202 457.217 262.548 457.909 263.241C458.602 263.905 458.949 264.742 458.949 265.753C458.949 266.763 458.602 267.614 457.909 268.307C457.217 268.971 456.336 269.303 455.268 269.303ZM455.268 251.377C454.171 251.377 453.262 251.045 452.54 250.381C451.848 249.689 451.501 248.837 451.501 247.827C451.501 246.816 451.848 245.979 452.54 245.315C453.262 244.623 454.171 244.276 455.268 244.276C456.336 244.276 457.217 244.623 457.909 245.315C458.602 245.979 458.949 246.816 458.949 247.827C458.949 248.837 458.602 249.689 457.909 250.381C457.217 251.045 456.336 251.377 455.268 251.377Z" fill="#002940"/>
<defs>
<filter id="filter0_d_483_3" x="0.632371" y="0" width="1046.74" height="1183.37" filterUnits="userSpaceOnUse" color-interpolation-filters="sRGB">
<feFlood flood-opacity="0" result="BackgroundImageFix"/>
<feColorMatrix in="SourceAlpha" type="matrix" values="0 0 0 0 0 0 0 0 0 0 0 0 0 0 0 0 0 0 127 0" result="hardAlpha"/>
<feOffset dy="6"/>
<feGaussianBlur stdDeviation="1.68381"/>
<feComposite in2="hardAlpha" operator="out"/>
<feColorMatrix type="matrix" values="0 0 0 0 0 0 0 0 0 0 0 0 0 0 0 0 0 0 0.25 0"/>
<feBlend mode="normal" in2="BackgroundImageFix" result="effect1_dropShadow_483_3"/>
<feBlend mode="normal" in="SourceGraphic" in2="effect1_dropShadow_483_3" result="shape"/>
</filter>
<filter id="filter1_d_483_3" x="542.998" y="666" width="412.004" height="91.5564" filterUnits="userSpaceOnUse" color-interpolation-filters="sRGB">
<feFlood flood-opacity="0" result="BackgroundImageFix"/>
<feColorMatrix in="SourceAlpha" type="matrix" values="0 0 0 0 0 0 0 0 0 0 0 0 0 0 0 0 0 0 127 0" result="hardAlpha"/>
<feOffset dy="3.00185"/>
<feGaussianBlur stdDeviation="1.50092"/>
<feComposite in2="hardAlpha" operator="out"/>
<feColorMatrix type="matrix" values="0 0 0 0 0 0 0 0 0 0 0 0 0 0 0 0 0 0 0.25 0"/>
<feBlend mode="normal" in2="BackgroundImageFix" result="effect1_dropShadow_483_3"/>
<feBlend mode="normal" in="SourceGraphic" in2="effect1_dropShadow_483_3" result="shape"/>
</filter>
<filter id="filter2_d_483_3" x="293" y="1013" width="506" height="103" filterUnits="userSpaceOnUse" color-interpolation-filters="sRGB">
<feFlood flood-opacity="0" result="BackgroundImageFix"/>
<feColorMatrix in="SourceAlpha" type="matrix" values="0 0 0 0 0 0 0 0 0 0 0 0 0 0 0 0 0 0 127 0" result="hardAlpha"/>
<feOffset dy="4"/>
<feGaussianBlur stdDeviation="2"/>
<feComposite in2="hardAlpha" operator="out"/>
<feColorMatrix type="matrix" values="0 0 0 0 0 0 0 0 0 0 0 0 0 0 0 0 0 0 0.25 0"/>
<feBlend mode="normal" in2="BackgroundImageFix" result="effect1_dropShadow_483_3"/>
<feBlend mode="normal" in="SourceGraphic" in2="effect1_dropShadow_483_3" result="shape"/>
</filter>
<filter id="filter3_d_483_3" x="531.998" y="230" width="412.004" height="91.5564" filterUnits="userSpaceOnUse" color-interpolation-filters="sRGB">
<feFlood flood-opacity="0" result="BackgroundImageFix"/>
<feColorMatrix in="SourceAlpha" type="matrix" values="0 0 0 0 0 0 0 0 0 0 0 0 0 0 0 0 0 0 127 0" result="hardAlpha"/>
<feOffset dy="3.00185"/>
<feGaussianBlur stdDeviation="1.50092"/>
<feComposite in2="hardAlpha" operator="out"/>
<feColorMatrix type="matrix" values="0 0 0 0 0 0 0 0 0 0 0 0 0 0 0 0 0 0 0.25 0"/>
<feBlend mode="normal" in2="BackgroundImageFix" result="effect1_dropShadow_483_3"/>
<feBlend mode="normal" in="SourceGraphic" in2="effect1_dropShadow_483_3" result="shape"/>
</filter>
<filter id="filter4_d_483_3" x="531.998" y="330" width="412.004" height="91.5564" filterUnits="userSpaceOnUse" color-interpolation-filters="sRGB">
<feFlood flood-opacity="0" result="BackgroundImageFix"/>
<feColorMatrix in="SourceAlpha" type="matrix" values="0 0 0 0 0 0 0 0 0 0 0 0 0 0 0 0 0 0 127 0" result="hardAlpha"/>
<feOffset dy="3.00185"/>
<feGaussianBlur stdDeviation="1.50092"/>
<feComposite in2="hardAlpha" operator="out"/>
<feColorMatrix type="matrix" values="0 0 0 0 0 0 0 0 0 0 0 0 0 0 0 0 0 0 0.25 0"/>
<feBlend mode="normal" in2="BackgroundImageFix" result="effect1_dropShadow_483_3"/>
<feBlend mode="normal" in="SourceGraphic" in2="effect1_dropShadow_483_3" result="shape"/>
</filter>
<filter id="filter5_d_483_3" x="531.998" y="430" width="412.004" height="91.5564" filterUnits="userSpaceOnUse" color-interpolation-filters="sRGB">
<feFlood flood-opacity="0" result="BackgroundImageFix"/>
<feColorMatrix in="SourceAlpha" type="matrix" values="0 0 0 0 0 0 0 0 0 0 0 0 0 0 0 0 0 0 127 0" result="hardAlpha"/>
<feOffset dy="3.00185"/>
<feGaussianBlur stdDeviation="1.50092"/>
<feComposite in2="hardAlpha" operator="out"/>
<feColorMatrix type="matrix" values="0 0 0 0 0 0 0 0 0 0 0 0 0 0 0 0 0 0 0.25 0"/>
<feBlend mode="normal" in2="BackgroundImageFix" result="effect1_dropShadow_483_3"/>
<feBlend mode="normal" in="SourceGraphic" in2="effect1_dropShadow_483_3" result="shape"/>
</filter>
<linearGradient id="paint0_linear_483_3" x1="795" y1="1061" x2="297" y2="1061" gradientUnits="userSpaceOnUse">
<stop stop-color="#5AA9FF"/>
<stop offset="1" stop-color="#7DD2FD"/>
</linearGradient>
</defs>
</svg>
